<svg xmlns="http://www.w3.org/2000/svg" xmlns:xlink="http://www.w3.org/1999/xlink" width="150" zoomAndPan="magnify" viewBox="0 0 112.5 112.499997" height="150" preserveAspectRatio="xMidYMid meet" version="1.0"><defs><clipPath id="689589ae2c"><path d="M 15.226562 67.445312 L 57 67.445312 L 57 107.054688 L 15.226562 107.054688 Z M 15.226562 67.445312 " clip-rule="nonzero"/></clipPath><clipPath id="a6a2f9b109"><path d="M 65 4.761719 L 87 4.761719 L 87 40 L 65 40 Z M 65 4.761719 " clip-rule="nonzero"/></clipPath></defs><path fill="#e93405" d="M 16.699219 60.246094 C 17.609375 62.484375 18.902344 63.933594 20.527344 65.648438 C 19.015625 65.714844 17.703125 67.164062 17.785156 68.671875 C 18.230469 68.65625 18.675781 68.636719 19.125 68.617188 C 18.117188 70.273438 17.148438 72.011719 16.855469 73.925781 C 16.566406 75.839844 17.066406 77.984375 18.570312 79.207031 C 19.390625 79.875 20.425781 80.214844 21.457031 80.441406 C 26.492188 81.554688 32.027344 80.140625 35.910156 76.75 C 34.667969 77.917969 35.097656 80.257812 36.585938 81.09375 C 38.074219 81.929688 40.132812 81.277344 41.066406 79.851562 C 40.304688 87.273438 48.167969 91.464844 54.4375 92.136719 C 56.554688 92.363281 58.695312 92.535156 60.800781 92.25 C 65.335938 91.632812 69.171875 90.015625 72.773438 87.328125 C 73.011719 87.148438 73.261719 86.96875 73.554688 86.917969 C 74.003906 86.839844 74.433594 87.085938 74.835938 87.300781 C 77.867188 88.90625 81.679688 88.933594 84.734375 87.371094 C 85.582031 86.941406 86.40625 86.355469 86.816406 85.5 C 87.230469 84.644531 87.09375 83.46875 86.3125 82.929688 C 89 82.546875 91.464844 80.816406 92.726562 78.417969 C 93.992188 76.019531 94.03125 73.011719 92.824219 70.585938 C 93.539062 72.027344 111.972656 63.488281 104.886719 56.933594 C 107.101562 55.289062 109.128906 53.082031 109.574219 50.363281 C 110.222656 46.378906 107.171875 42.535156 103.46875 40.910156 C 99.769531 39.285156 95.574219 39.355469 91.535156 39.460938 C 92.554688 38.46875 93.609375 37.414062 94.042969 36.058594 C 94.472656 34.703125 94.039062 32.957031 92.730469 32.390625 C 92.140625 32.136719 91.472656 32.15625 90.832031 32.210938 C 88.683594 32.398438 86.566406 32.984375 84.625 33.921875 C 86.296875 31.015625 86.039062 27.152344 84.113281 24.398438 C 82.1875 21.648438 78.742188 20.085938 75.386719 20.28125 C 72.820312 20.433594 68.691406 22.269531 67.726562 24.972656 C 68.332031 23.28125 67.28125 21.167969 65.546875 20.683594 C 63.8125 20.199219 61.78125 21.53125 61.605469 23.324219 C 61.429688 21.1875 60.945312 19.027344 59.773438 17.234375 C 57.492188 13.75 52.921875 12.511719 49.214844 13.933594 C 44.867188 15.597656 40.96875 20.25 41.398438 25.125 C 41.292969 23.921875 39.3125 23.84375 38.632812 24.839844 C 37.945312 25.835938 38.179688 27.171875 38.445312 28.351562 C 37.945312 25.902344 36.988281 23.199219 34.695312 22.195312 C 32.214844 21.109375 29.140625 22.71875 27.984375 25.164062 C 26.832031 27.609375 27.261719 30.546875 28.386719 33.007812 C 27.367188 32.617188 26.175781 32.550781 25.214844 33.066406 C 24.253906 33.578125 23.621094 34.757812 23.941406 35.796875 C 24.265625 36.835938 25.675781 37.441406 26.554688 36.796875 C 16.777344 39.246094 13.207031 51.6875 16.699219 60.246094 " fill-opacity="1" fill-rule="nonzero"/><path fill="#fdb12d" d="M 19.128906 59.945312 C 19.992188 62.058594 21.214844 63.429688 22.75 65.050781 C 21.320312 65.113281 20.078125 66.480469 20.15625 67.910156 C 20.578125 67.890625 21 67.875 21.421875 67.859375 C 20.46875 69.421875 19.554688 71.066406 19.28125 72.875 C 19.003906 74.6875 19.476562 76.710938 20.898438 77.867188 C 21.671875 78.496094 22.652344 78.820312 23.625 79.035156 C 28.390625 80.085938 33.621094 78.75 37.292969 75.546875 C 36.117188 76.648438 36.523438 78.859375 37.929688 79.652344 C 39.335938 80.441406 41.28125 79.824219 42.164062 78.476562 C 41.445312 85.492188 48.878906 89.457031 54.804688 90.089844 C 56.804688 90.304688 58.828125 90.464844 60.820312 90.195312 C 65.105469 89.613281 68.734375 88.085938 72.140625 85.542969 C 72.363281 85.375 72.601562 85.203125 72.878906 85.15625 C 73.300781 85.082031 73.710938 85.316406 74.089844 85.519531 C 76.953125 87.035156 80.558594 87.0625 83.445312 85.585938 C 84.246094 85.179688 85.023438 84.625 85.414062 83.8125 C 85.804688 83.003906 85.679688 81.898438 84.9375 81.386719 C 87.480469 81.027344 89.808594 79.390625 91.003906 77.121094 C 92.199219 74.851562 92.234375 72.011719 91.09375 69.714844 C 91.769531 71.082031 109.195312 63.007812 102.496094 56.808594 C 104.59375 55.253906 106.507812 53.171875 106.925781 50.597656 C 107.539062 46.832031 104.65625 43.203125 101.15625 41.664062 C 97.660156 40.125 93.695312 40.195312 89.871094 40.292969 C 90.839844 39.355469 91.835938 38.359375 92.246094 37.078125 C 92.652344 35.796875 92.242188 34.144531 91.003906 33.609375 C 90.445312 33.371094 89.816406 33.386719 89.210938 33.441406 C 87.179688 33.617188 85.179688 34.171875 83.339844 35.058594 C 84.925781 32.308594 84.679688 28.65625 82.859375 26.054688 C 81.039062 23.457031 77.78125 21.976562 74.609375 22.164062 C 72.183594 22.308594 68.28125 24.039062 67.367188 26.597656 C 67.9375 24.996094 66.949219 23 65.308594 22.542969 C 63.667969 22.085938 61.75 23.34375 61.582031 25.039062 C 61.414062 23.019531 60.957031 20.976562 59.847656 19.28125 C 57.695312 15.988281 53.371094 14.820312 49.867188 16.160156 C 45.757812 17.734375 42.074219 22.132812 42.476562 26.742188 C 42.378906 25.605469 40.507812 25.527344 39.863281 26.46875 C 39.214844 27.414062 39.4375 28.675781 39.6875 29.789062 C 39.214844 27.476562 38.308594 24.921875 36.140625 23.972656 C 33.796875 22.945312 30.890625 24.464844 29.800781 26.777344 C 28.707031 29.089844 29.113281 31.867188 30.179688 34.191406 C 29.214844 33.824219 28.089844 33.761719 27.179688 34.246094 C 26.269531 34.730469 25.671875 35.847656 25.976562 36.828125 C 26.28125 37.8125 27.617188 38.382812 28.449219 37.777344 C 19.203125 40.089844 15.832031 51.851562 19.128906 59.945312 " fill-opacity="1" fill-rule="nonzero"/><g clip-path="url(#689589ae2c)"><path fill="#f5e855" d="M 49.933594 91.144531 C 52.363281 87.519531 54.578125 83.652344 56.425781 79.886719 C 58.097656 76.476562 55.484375 73.183594 52.65625 71.160156 C 47.242188 67.289062 39.566406 66.171875 33.851562 69.585938 C 32.085938 70.640625 30.449219 72.082031 29.101562 73.632812 C 28.355469 74.492188 26.460938 77.519531 25.289062 77.511719 C 26.5625 77.519531 27.285156 79.066406 27.167969 80.335938 C 26.863281 83.605469 23.5 87.019531 21.703125 89.5625 C 19.683594 92.421875 17.691406 95.800781 15.285156 98.332031 C 16.015625 98.332031 18.398438 95.058594 18.96875 94.460938 C 20.398438 92.953125 21.832031 91.445312 23.265625 89.941406 C 25.730469 87.351562 28.347656 84.808594 31.152344 82.566406 C 31.515625 83.027344 31.1875 83.691406 30.84375 84.167969 C 29.113281 86.574219 27.222656 88.871094 25.457031 91.257812 C 22.769531 94.894531 20.078125 98.53125 17.390625 102.171875 C 18.132812 102.171875 20.539062 98.902344 21.117188 98.300781 C 22.566406 96.796875 24.019531 95.292969 25.46875 93.785156 C 28.050781 91.109375 30.585938 88.351562 33.40625 85.921875 C 33.664062 85.703125 33.996094 85.46875 34.308594 85.59375 C 35.070312 85.894531 27.886719 96.539062 27.160156 97.539062 C 30.417969 94.421875 32.71875 90.144531 36.839844 88.007812 C 35.972656 91.433594 34.359375 94.613281 32.757812 97.765625 C 31.1875 100.863281 29.613281 103.957031 28.039062 107.054688 C 32.304688 101.433594 36.914062 96.074219 41.832031 91.011719 C 41.621094 94.679688 40.125 98.132812 38.648438 101.496094 C 41.425781 96.625 44.441406 91.515625 49.359375 88.804688 C 48.683594 91.203125 47.761719 93.535156 46.621094 95.75 C 47.757812 94.28125 48.863281 92.734375 49.933594 91.144531 " fill-opacity="1" fill-rule="nonzero"/></g><path fill="#fbad0a" d="M 34.367188 98.246094 C 35.59375 96.269531 36.59375 94.160156 37.351562 91.960938 C 37.929688 90.277344 38.671875 87.917969 38.691406 86.136719 C 36.480469 86.449219 35.039062 88.539062 33.1875 89.785156 C 34.128906 89.148438 35.621094 86.21875 35.402344 85.148438 C 33.179688 85.007812 30.625 87.148438 29.347656 88.800781 C 30.832031 86.875 32.304688 85.148438 32.667969 82.679688 C 32.699219 82.484375 32.714844 82.273438 32.617188 82.101562 C 32.382812 81.699219 31.777344 81.832031 31.355469 82.027344 C 29.277344 83.003906 28.066406 84.308594 26.4375 85.828125 C 27.335938 84.398438 28.027344 82.894531 28.171875 81.34375 C 28.269531 80.285156 27.957031 79.175781 27.34375 78.382812 C 27.9375 77.78125 28.542969 77 29.191406 76.125 C 29.441406 75.789062 29.675781 75.472656 29.820312 75.308594 C 31.164062 73.761719 32.707031 72.445312 34.28125 71.503906 C 36.328125 70.28125 38.785156 69.636719 41.390625 69.636719 C 44.984375 69.636719 48.773438 70.871094 51.78125 73.023438 C 52.988281 73.886719 56.800781 76.960938 55.179688 80.261719 C 53.886719 82.894531 52.425781 85.546875 50.871094 88.09375 L 51.09375 87.296875 L 48.605469 88.667969 C 45.953125 90.128906 44.019531 92.378906 41.894531 94.484375 C 42.621094 92.734375 43.367188 90.902344 43.21875 89.015625 C 39.820312 91.617188 36.824219 94.742188 34.367188 98.246094 " fill-opacity="1" fill-rule="nonzero"/><path fill="#f5e855" d="M 37.046875 16.027344 C 37.742188 17.402344 39.367188 22.335938 41.46875 22.011719 C 42.25 21.886719 42.855469 21.214844 43.128906 20.46875 C 43.402344 19.722656 43.398438 18.910156 43.394531 18.121094 C 44.761719 21.90625 46.003906 25.757812 46.632812 29.734375 C 46.945312 31.71875 47.097656 33.796875 46.445312 35.695312 C 46.0625 36.816406 45.417969 37.820312 44.78125 38.816406 C 41.292969 44.242188 37.773438 49.714844 33.230469 54.296875 C 32.914062 54.617188 32.582031 54.941406 32.175781 55.136719 C 31.617188 55.398438 30.976562 55.398438 30.359375 55.386719 C 25.617188 55.289062 20.878906 54.84375 16.203125 54.058594 C 17.40625 53.207031 18.609375 52.359375 19.8125 51.511719 C 20.015625 51.367188 20.226562 51.214844 20.324219 50.984375 C 20.503906 50.566406 20.226562 50.105469 19.949219 49.746094 C 17.476562 46.566406 14.28125 44.152344 11.039062 41.796875 C 14.132812 43.640625 17.503906 45.554688 21.09375 45.226562 C 15.683594 37.742188 9.28125 30.964844 2.113281 25.125 C 7.652344 30.0625 13.863281 34.246094 20.527344 37.519531 C 21.707031 38.09375 23.027344 38.660156 24.292969 38.3125 C 21.855469 32.890625 17.898438 28.316406 13.996094 23.824219 C 9.34375 18.46875 4.691406 13.113281 0.0351562 7.757812 C 8.136719 15.484375 16.691406 23.480469 27.472656 26.539062 C 28.375 26.796875 29.5 26.953125 30.105469 26.238281 C 30.5625 25.703125 30.5 24.914062 30.382812 24.222656 C 29.976562 21.792969 29.210938 19.425781 28.113281 17.222656 C 29.796875 19.351562 31.894531 21.152344 34.253906 22.5 C 34.941406 22.890625 35.882812 23.21875 36.453125 22.667969 C 36.808594 22.328125 36.847656 21.78125 36.863281 21.289062 C 36.925781 19.535156 36.984375 17.78125 37.046875 16.027344 " fill-opacity="1" fill-rule="nonzero"/><g clip-path="url(#a6a2f9b109)"><path fill="#f5e855" d="M 68.042969 24.371094 C 70.078125 22.164062 71.964844 19.820312 73.679688 17.355469 C 73.277344 18.523438 72.269531 20.132812 72.285156 21.382812 C 72.332031 25.6875 77.03125 19.664062 77.683594 18.65625 C 80.679688 14.023438 83.671875 9.390625 86.667969 4.757812 C 84.816406 7.621094 83.542969 11.402344 82.015625 14.488281 C 80.433594 17.691406 79.257812 21.3125 79.035156 24.90625 C 82.382812 23.625 84.648438 20.554688 86.722656 17.636719 C 84.203125 23.277344 81.65625 29.019531 80.894531 35.148438 C 80.800781 35.898438 80.71875 36.6875 80.277344 37.300781 C 79.945312 37.761719 79.441406 38.070312 78.929688 38.320312 C 75.347656 40.066406 70.699219 39.300781 67.871094 36.5 C 66.183594 34.832031 65.214844 32.507812 65.070312 30.15625 C 65.007812 29.082031 64.976562 27.324219 65.578125 26.375 C 66.164062 25.457031 67.246094 25.230469 68.042969 24.371094 " fill-opacity="1" fill-rule="nonzero"/></g><path fill="#fbad0a" d="M 71 23.585938 C 70.726562 24.472656 71.660156 25.363281 72.589844 25.386719 C 73.519531 25.414062 74.355469 24.851562 75.070312 24.257812 C 76.308594 23.230469 77.410156 22.027344 78.324219 20.703125 C 77.691406 22.246094 77.230469 23.859375 76.945312 25.5 C 76.878906 25.902344 76.835938 26.367188 77.113281 26.664062 C 77.355469 26.921875 77.75 26.953125 78.101562 26.933594 C 79.109375 26.863281 80.089844 26.457031 80.847656 25.796875 C 80.003906 29.007812 79.160156 32.222656 78.316406 35.433594 C 78.238281 35.730469 78.148438 36.042969 77.921875 36.246094 C 77.6875 36.457031 77.351562 36.507812 77.039062 36.546875 C 74.714844 36.820312 72.257812 36.898438 70.152344 35.878906 C 68.0625 34.863281 66.320312 32.160156 66.847656 29.777344 C 67.410156 27.257812 70.261719 25.976562 71 23.585938 " fill-opacity="1" fill-rule="nonzero"/><path fill="#fbad0a" d="M 24.195312 48.5625 C 23.484375 48.074219 22.683594 47.667969 22.15625 46.984375 C 23.261719 47.128906 24.71875 47.070312 25.070312 46.015625 C 25.320312 45.273438 24.820312 44.503906 24.332031 43.890625 C 23.289062 42.574219 22.183594 41.308594 21.015625 40.097656 C 22.121094 40.726562 23.363281 41.109375 24.628906 41.214844 C 25.117188 41.257812 25.628906 41.253906 26.066406 41.03125 C 27.105469 40.496094 27.195312 39.042969 26.949219 37.902344 C 26.519531 35.941406 25.53125 34.148438 24.457031 32.457031 C 22.753906 29.78125 20.808594 27.269531 18.863281 24.765625 C 22.816406 28.046875 27.472656 30.480469 32.425781 31.855469 C 32.945312 32 33.519531 32.125 34 31.886719 C 34.566406 31.605469 34.792969 30.917969 34.875 30.289062 C 35.089844 28.660156 34.707031 26.957031 33.816406 25.574219 C 34.734375 26.3125 35.648438 27.046875 36.5625 27.78125 C 36.90625 28.054688 37.375 28.34375 37.75 28.113281 C 37.925781 28.003906 38.023438 27.804688 38.105469 27.613281 C 38.707031 26.179688 38.910156 24.582031 38.6875 23.046875 C 39.285156 24.28125 40.160156 25.378906 41.230469 26.234375 C 41.460938 26.417969 41.710938 26.597656 42 26.648438 C 42.957031 26.808594 43.507812 25.613281 43.714844 24.667969 C 46.089844 28.839844 45.832031 34.125 44.027344 38.574219 C 42.222656 43.019531 39.03125 46.761719 35.664062 50.183594 C 34.195312 51.679688 32.574219 53.3125 30.425781 53.480469 C 28.066406 53.664062 25.519531 53.5625 23.199219 53.0625 C 23.929688 53.21875 25.148438 51.644531 25.34375 51.085938 C 25.753906 49.894531 25.230469 49.277344 24.195312 48.5625 " fill-opacity="1" fill-rule="nonzero"/><path fill="#f5e855" d="M 79.382812 95.097656 C 81.375 97.003906 83.296875 98.976562 85.148438 101.015625 C 83.703125 98.9375 82.261719 96.859375 80.816406 94.785156 C 80.371094 94.144531 79.910156 93.351562 80.21875 92.640625 C 81.644531 92.851562 82.910156 93.636719 84.113281 94.429688 C 88.832031 97.554688 93.261719 101.121094 97.320312 105.0625 C 94.375 101.527344 91.792969 97.6875 89.628906 93.628906 C 88.867188 92.191406 88.144531 90.480469 88.816406 88.996094 C 89.777344 88.699219 90.761719 89.3125 91.570312 89.910156 C 93.390625 91.253906 95.152344 92.667969 96.859375 94.148438 C 95.238281 92.222656 93.726562 90.203125 92.335938 88.101562 C 91.496094 86.832031 90.667969 85.4375 90.691406 83.914062 C 92.9375 83.203125 95.261719 84.578125 97.214844 85.894531 C 101.515625 88.789062 105.816406 91.683594 110.117188 94.578125 C 106.671875 89.914062 103.226562 85.25 99.78125 80.582031 C 98.398438 78.714844 96.941406 76.496094 97.523438 74.246094 C 99.285156 74.113281 101.09375 74.871094 102.238281 76.214844 C 101.414062 75.289062 100.71875 74.253906 100.167969 73.144531 C 99.90625 72.613281 99.761719 71.8125 100.296875 71.5625 C 100.503906 71.46875 100.742188 71.5 100.964844 71.546875 C 102.222656 71.808594 103.347656 72.5 104.4375 73.179688 C 106.6875 74.578125 108.9375 75.972656 111.1875 77.371094 C 107.460938 73.832031 104.144531 69.855469 101.335938 65.554688 C 102.320312 64.78125 103.734375 65.523438 104.742188 66.261719 C 106.914062 67.84375 109.152344 69.503906 110.441406 71.863281 C 107.054688 66.757812 103.664062 61.660156 100.273438 56.554688 C 99.269531 55.054688 93.847656 56.90625 92.480469 57.355469 C 86.414062 59.335938 78.988281 61.976562 74.121094 66.238281 C 71.3125 68.699219 68.261719 70.859375 65.398438 73.257812 C 62.574219 75.628906 59.964844 78.210938 57.050781 80.476562 C 57.820312 81.925781 59.25 82.886719 60.5625 83.875 C 63.917969 86.402344 66.835938 89.511719 69.140625 93.019531 C 68.414062 91.570312 67.820312 90.050781 67.375 88.488281 C 67.238281 88 67.140625 87.398438 67.503906 87.042969 C 67.964844 86.585938 68.738281 86.90625 69.289062 87.25 C 72.886719 89.519531 76.316406 92.167969 79.382812 95.097656 " fill-opacity="1" fill-rule="nonzero"/><path fill="#fbad0a" d="M 89.179688 96.070312 C 87.808594 95.046875 86.40625 94.0625 84.980469 93.121094 C 83.742188 92.300781 82.46875 91.726562 81.148438 91.066406 C 80.480469 90.734375 79.675781 90.507812 79.007812 90.835938 C 78.765625 90.957031 78.554688 91.15625 78.476562 91.414062 C 78.292969 92.03125 78.929688 92.675781 78.738281 93.289062 C 77.40625 92.03125 76.808594 90.691406 75.285156 89.515625 C 73.621094 88.238281 71.902344 87.039062 70.128906 85.921875 C 69.546875 85.554688 68.980469 85.335938 68.441406 85.269531 C 67.652344 85.167969 66.925781 85.402344 66.398438 85.921875 C 66.210938 86.105469 66.0625 86.308594 65.945312 86.53125 C 64.578125 85.121094 63.097656 83.8125 61.511719 82.621094 C 61.367188 82.511719 61.222656 82.402344 61.074219 82.292969 C 60.394531 81.785156 59.734375 81.296875 59.210938 80.761719 C 60.546875 79.660156 61.828125 78.511719 63.074219 77.390625 C 64.160156 76.417969 65.28125 75.410156 66.414062 74.460938 C 67.65625 73.417969 68.972656 72.394531 70.246094 71.402344 C 71.875 70.132812 73.5625 68.820312 75.160156 67.417969 C 79.570312 63.558594 86.324219 61.019531 92.96875 58.847656 L 93.140625 58.792969 C 95.992188 57.855469 97.949219 57.445312 98.953125 57.570312 C 99.003906 57.578125 99.042969 57.582031 99.074219 57.589844 C 99.640625 57.710938 100.890625 60.320312 101.207031 60.804688 C 102.070312 62.128906 103.089844 63.457031 103.851562 64.828125 C 103.398438 64.441406 102.917969 64.042969 102.339844 63.910156 C 101.757812 63.777344 101.046875 64.011719 100.84375 64.574219 C 100.769531 64.777344 100.773438 65.003906 100.78125 65.222656 C 100.886719 67.453125 101.832031 69.632812 103.390625 71.234375 C 102.472656 70.589844 101.449219 69.910156 100.328125 70.015625 C 99.972656 70.046875 99.605469 70.171875 99.367188 70.441406 C 98.640625 71.277344 99.902344 72.359375 99.828125 73.242188 C 98.804688 72.878906 97.609375 72.527344 96.683594 73.09375 C 93.828125 74.832031 97.230469 79.78125 98.511719 81.515625 C 98.511719 81.515625 103.441406 88.191406 103.441406 88.191406 L 98.09375 84.589844 C 96.214844 83.324219 93.980469 82.152344 91.703125 81.882812 C 91.085938 81.8125 90.414062 81.964844 89.980469 82.410156 C 89.425781 82.984375 89.390625 83.875 89.425781 84.671875 C 89.476562 85.773438 89.613281 86.925781 90.238281 87.832031 C 89.539062 87.484375 88.746094 87.324219 87.964844 87.363281 C 87.75 87.375 87.53125 87.40625 87.34375 87.507812 C 86.859375 87.773438 86.757812 88.414062 86.75 88.964844 C 86.710938 90.945312 87.316406 92.632812 88.238281 94.363281 C 88.546875 94.9375 88.859375 95.507812 89.179688 96.070312 " fill-opacity="1" fill-rule="nonzero"/><path fill="#fb8300" d="M 27.34375 48.253906 C 26.753906 47.847656 26.09375 47.511719 25.660156 46.949219 C 26.574219 47.070312 27.777344 47.019531 28.070312 46.148438 C 28.273438 45.535156 27.859375 44.898438 27.457031 44.394531 C 26.59375 43.304688 25.679688 42.257812 24.714844 41.257812 C 25.628906 41.773438 26.65625 42.09375 27.703125 42.179688 C 28.105469 42.214844 28.53125 42.210938 28.886719 42.027344 C 29.75 41.585938 29.824219 40.382812 29.617188 39.441406 C 29.265625 37.820312 28.449219 36.339844 27.558594 34.941406 C 26.152344 32.730469 24.542969 30.65625 22.9375 28.585938 C 26.207031 31.296875 30.054688 33.308594 34.148438 34.445312 C 34.574219 34.5625 35.046875 34.667969 35.445312 34.472656 C 35.914062 34.238281 36.101562 33.667969 36.167969 33.152344 C 36.347656 31.804688 36.03125 30.398438 35.296875 29.253906 C 36.050781 29.863281 36.808594 30.46875 37.566406 31.078125 C 37.847656 31.304688 38.234375 31.542969 38.542969 31.351562 C 38.691406 31.261719 38.769531 31.097656 38.839844 30.9375 C 39.335938 29.753906 39.503906 28.4375 39.320312 27.167969 C 39.8125 28.183594 40.539062 29.089844 41.421875 29.800781 C 41.613281 29.953125 41.816406 30.101562 42.058594 30.140625 C 42.847656 30.273438 43.304688 29.289062 43.476562 28.503906 C 45.4375 31.953125 45.226562 36.320312 43.734375 39.996094 C 42.242188 43.671875 39.605469 46.761719 36.824219 49.59375 C 35.609375 50.828125 34.269531 52.179688 32.492188 52.316406 C 30.542969 52.46875 28.4375 52.382812 26.519531 51.972656 C 27.121094 52.101562 28.128906 50.800781 28.289062 50.335938 C 28.632812 49.351562 28.199219 48.84375 27.34375 48.253906 " fill-opacity="1" fill-rule="nonzero"/><path fill="#e93405" d="M 96.515625 34.09375 C 91.917969 29.074219 84.261719 26.96875 77.847656 29.261719 C 76.230469 29.839844 74.679688 30.691406 73.523438 31.960938 C 74.050781 27.660156 66.386719 27.160156 66.816406 30.75 C 66.433594 27.570312 64.796875 24.5625 62.335938 22.511719 C 59.109375 19.824219 55.050781 19.210938 51.019531 19.882812 C 47.625 20.445312 44.359375 21.992188 41.953125 24.449219 C 39.546875 26.90625 38.058594 30.300781 38.136719 33.738281 C 37.050781 32.984375 35.4375 33.117188 34.488281 34.039062 C 33.542969 34.960938 33.363281 36.5625 34.085938 37.667969 C 33.664062 37.027344 31.949219 39.511719 31.777344 39.777344 C 31 40.964844 30.589844 42.292969 30.328125 43.714844 C 29.730469 46.9375 30.097656 50.347656 31.441406 53.34375 C 29.378906 52.425781 26.984375 53.15625 24.894531 54.003906 C 23.234375 54.683594 21.574219 55.449219 20.210938 56.613281 C 18.847656 57.78125 17.792969 59.40625 17.65625 61.195312 C 17.523438 62.984375 18.464844 64.898438 20.125 65.585938 C 18.710938 67.75 17.648438 70.339844 18.144531 72.875 C 18.871094 76.585938 22.800781 78.96875 26.582031 79.199219 C 30.359375 79.429688 34.019531 78.007812 37.539062 76.605469 C 36.964844 77.808594 36.378906 79.074219 36.441406 80.40625 C 36.503906 81.738281 37.453125 83.128906 38.785156 83.203125 C 39.386719 83.234375 39.96875 83.003906 40.511719 82.746094 C 42.339844 81.882812 44.007812 80.6875 45.40625 79.230469 C 44.882812 82.328125 46.367188 85.636719 48.953125 87.429688 C 51.539062 89.222656 55.074219 89.480469 57.960938 88.21875 C 61.066406 86.859375 63.894531 84.785156 65.445312 81.691406 C 68.464844 83.902344 72.144531 85.320312 75.890625 85.265625 C 79.636719 85.210938 83.417969 83.574219 85.695312 80.605469 C 87.441406 78.332031 88.222656 75.472656 88.765625 72.664062 C 89.863281 73.535156 91.183594 74.289062 92.585938 74.195312 C 93.988281 74.101562 95.234375 73.132812 95.945312 71.917969 C 96.65625 70.703125 96.898438 69.269531 96.964844 67.863281 C 97.085938 65.296875 96.640625 62.707031 95.671875 60.324219 C 95.542969 60 95.398438 59.644531 95.496094 59.304688 C 95.574219 59.050781 95.773438 58.859375 95.960938 58.671875 C 97.433594 57.195312 98.320312 55.199219 99.492188 53.503906 C 100.796875 51.605469 101.367188 49.203125 101.449219 46.925781 C 101.609375 42.246094 99.65625 37.527344 96.515625 34.09375 " fill-opacity="1" fill-rule="nonzero"/><path fill="#fdae31" d="M 93.5625 35.710938 C 89.332031 31.089844 82.285156 29.152344 76.386719 31.265625 C 74.898438 31.796875 73.46875 32.582031 72.40625 33.746094 C 72.894531 29.789062 65.839844 29.328125 66.238281 32.632812 C 65.886719 29.707031 64.378906 26.9375 62.113281 25.050781 C 59.144531 22.578125 55.410156 22.015625 51.703125 22.632812 C 48.578125 23.152344 45.574219 24.574219 43.359375 26.835938 C 41.144531 29.097656 39.773438 32.21875 39.847656 35.382812 C 38.847656 34.6875 37.363281 34.8125 36.492188 35.660156 C 35.621094 36.503906 35.453125 37.984375 36.121094 39 C 35.734375 38.40625 34.15625 40.695312 33.996094 40.9375 C 33.277344 42.03125 32.902344 43.253906 32.660156 44.558594 C 32.109375 47.527344 32.453125 50.664062 33.6875 53.425781 C 31.789062 52.578125 29.585938 53.25 27.664062 54.03125 C 26.132812 54.652344 24.609375 55.359375 23.351562 56.433594 C 22.097656 57.503906 21.128906 59 21.003906 60.644531 C 20.878906 62.292969 21.75 64.054688 23.273438 64.683594 C 21.972656 66.675781 20.996094 69.0625 21.453125 71.394531 C 22.121094 74.808594 25.738281 77 29.214844 77.214844 C 32.691406 77.425781 36.0625 76.113281 39.296875 74.824219 C 38.769531 75.933594 38.230469 77.097656 38.289062 78.324219 C 38.34375 79.546875 39.21875 80.828125 40.445312 80.894531 C 40.996094 80.925781 41.53125 80.710938 42.03125 80.476562 C 43.714844 79.683594 45.25 78.582031 46.539062 77.242188 C 46.054688 80.089844 47.421875 83.136719 49.800781 84.785156 C 52.179688 86.4375 55.433594 86.671875 58.085938 85.511719 C 60.945312 84.261719 63.546875 82.351562 64.972656 79.503906 C 67.753906 81.539062 71.136719 82.84375 74.582031 82.792969 C 78.03125 82.742188 81.511719 81.238281 83.609375 78.507812 C 85.214844 76.414062 85.933594 73.785156 86.429688 71.195312 C 87.441406 72 88.65625 72.695312 89.945312 72.609375 C 91.238281 72.519531 92.382812 71.628906 93.039062 70.511719 C 93.691406 69.394531 93.917969 68.074219 93.976562 66.78125 C 94.085938 64.421875 93.679688 62.035156 92.789062 59.84375 C 92.667969 59.546875 92.535156 59.21875 92.625 58.90625 C 92.695312 58.675781 92.882812 58.496094 93.054688 58.324219 C 94.410156 56.964844 95.222656 55.128906 96.300781 53.570312 C 97.503906 51.824219 98.027344 49.609375 98.101562 47.515625 C 98.25 43.207031 96.453125 38.867188 93.5625 35.710938 " fill-opacity="1" fill-rule="nonzero"/><path fill="#e93405" d="M 64.175781 35.058594 C 65.699219 37.671875 66.683594 41.496094 64.835938 44.199219 C 63.140625 46.683594 59.578125 47.664062 56.734375 47.820312 C 55.527344 47.886719 54.28125 47.816406 53.183594 47.3125 C 45.480469 43.765625 44.757812 32.375 53.859375 30.070312 C 55.234375 29.71875 56.707031 29.707031 58.0625 30.132812 C 60.746094 30.980469 62.851562 32.78125 64.175781 35.058594 " fill-opacity="1" fill-rule="nonzero"/><path fill="#f67316" d="M 63.511719 36.902344 C 64.800781 39.121094 65.640625 42.367188 64.070312 44.660156 C 62.628906 46.765625 59.609375 47.601562 57.195312 47.734375 C 56.171875 47.789062 55.109375 47.730469 54.179688 47.300781 C 47.644531 44.292969 47.03125 34.625 54.753906 32.667969 C 55.921875 32.371094 57.171875 32.359375 58.320312 32.722656 C 60.597656 33.441406 62.386719 34.96875 63.511719 36.902344 " fill-opacity="1" fill-rule="nonzero"/><path fill="#fdae31" d="M 56.28125 38.347656 C 58.214844 37.085938 60.394531 36.210938 62.640625 35.652344 C 61.546875 34.320312 60.082031 33.277344 58.320312 32.722656 C 57.171875 32.359375 55.921875 32.371094 54.753906 32.667969 C 48.875 34.160156 47.828125 40.113281 50.542969 44.199219 C 51.964844 41.851562 54.007812 39.835938 56.28125 38.347656 " fill-opacity="1" fill-rule="nonzero"/><path fill="#e93405" d="M 64.160156 52.199219 C 63.320312 49.742188 62.214844 47.324219 60.472656 45.398438 C 58.296875 42.992188 55.128906 41.460938 51.886719 41.433594 C 48.640625 41.410156 45.382812 42.953125 43.492188 45.589844 C 40.394531 43.304688 36.484375 42.058594 32.652344 42.421875 C 24.257812 43.214844 20.316406 52.773438 24.015625 59.976562 C 22.625 66.09375 22.378906 72.054688 27.351562 76.707031 C 30.261719 79.429688 34.019531 80.398438 37.886719 80.183594 C 38.003906 80.179688 38.128906 80.175781 38.230469 80.234375 C 38.34375 80.300781 38.398438 80.433594 38.449219 80.558594 C 39.410156 83.007812 40.808594 85.496094 42.847656 87.222656 C 43.007812 86.992188 43.179688 86.765625 43.367188 86.550781 C 45.363281 84.257812 48.945312 83.355469 51.851562 83.945312 C 53.761719 84.332031 55.371094 85.5 56.613281 86.972656 C 56.710938 86.914062 56.804688 86.851562 56.894531 86.792969 C 58.273438 85.867188 59.5 84.679688 60.480469 83.242188 C 66.742188 74.101562 67.707031 62.644531 64.160156 52.199219 " fill-opacity="1" fill-rule="nonzero"/><path fill="#f67316" d="M 61.140625 50.550781 C 60.652344 49.117188 60.109375 47.675781 59.199219 46.460938 C 57.429688 44.101562 54.28125 42.859375 51.375 43.371094 C 48.46875 43.882812 45.9375 46.128906 45.085938 48.949219 C 44.089844 47.671875 42.492188 46.96875 40.886719 46.761719 C 39.28125 46.554688 37.652344 46.792969 36.0625 47.097656 C 37.082031 46.136719 38.449219 45.5625 39.851562 45.5 C 35.464844 44.742188 30.429688 44.875 27.242188 47.976562 C 27.886719 46.492188 29.003906 45.214844 30.390625 44.382812 C 27.171875 45.144531 24.644531 48.203125 24.507812 51.503906 C 25.417969 50.65625 26.476562 49.964844 27.621094 49.46875 C 25.292969 51.539062 24.101562 54.808594 24.554688 57.886719 C 26.105469 55.449219 28.976562 53.902344 31.871094 53.949219 C 28.535156 56.480469 26.472656 60.597656 26.4375 64.78125 C 25.71875 61.820312 26.441406 58.546875 28.335938 56.160156 C 25.179688 58.875 24.046875 63.453125 24.765625 67.550781 C 25.199219 70.039062 26.28125 72.464844 28.132812 74.1875 C 29.980469 75.910156 32.652344 76.832031 35.113281 76.265625 C 33.683594 77.21875 31.691406 77.246094 30.230469 76.339844 C 33.027344 78.742188 37.539062 78.839844 40.433594 76.5625 C 39.867188 79.515625 40.09375 81.558594 41.566406 84.167969 C 41.8125 83.070312 42.996094 82.460938 44.089844 82.175781 C 46.488281 81.554688 49.042969 81.792969 51.445312 82.402344 C 52.855469 82.761719 54.371094 83.359375 54.992188 84.667969 C 54.652344 83.953125 57.1875 82.011719 57.675781 81.523438 C 58.890625 80.308594 59.859375 78.683594 60.671875 77.183594 C 62.292969 74.195312 63.316406 70.875 63.640625 67.488281 C 64.179688 61.765625 62.988281 55.996094 61.140625 50.550781 " fill-opacity="1" fill-rule="nonzero"/><path fill="#fdae31" d="M 34.421875 51.519531 C 37.589844 48.417969 43.199219 48.277344 46.519531 51.21875 C 47.195312 48.304688 50.390625 46.226562 53.335938 46.789062 C 50.828125 52.445312 51.734375 59.460938 55.597656 64.296875 C 56.941406 65.980469 58.640625 67.464844 59.421875 69.472656 C 59.90625 70.71875 60 72.089844 59.882812 73.421875 C 59.460938 77.214844 57.648438 79.195312 55.242188 81.863281 C 55.15625 81.957031 55.058594 82.058594 54.929688 82.058594 C 54.824219 82.058594 54.734375 81.984375 54.652344 81.914062 C 51.765625 79.457031 47.484375 78.476562 44.03125 80.050781 C 43.9375 80.089844 43.835938 80.136719 43.738281 80.109375 C 43.597656 80.074219 43.53125 79.921875 43.488281 79.785156 C 42.984375 78.261719 43.117188 76.734375 42.765625 75.269531 C 43 76.242188 43.457031 77.875 44.535156 78.199219 C 44.078125 78.0625 45.089844 72.847656 45.21875 72.160156 C 44.957031 73.558594 39.730469 74.839844 38.503906 75.023438 C 35.949219 75.402344 33.214844 74.589844 31.277344 72.886719 C 28.585938 70.519531 27.425781 66.660156 28.007812 63.128906 C 28.589844 59.59375 30.78125 56.429688 33.671875 54.3125 C 32.28125 55.988281 31.394531 58.074219 31.160156 60.238281 C 32.972656 56.558594 36.273438 53.628906 40.148438 52.261719 C 39.25 51.414062 35.464844 50.496094 34.421875 51.519531 " fill-opacity="1" fill-rule="nonzero"/><path fill="#e93405" d="M 90.109375 77.535156 C 92.90625 78.328125 96.121094 77.359375 98.011719 75.15625 C 99.558594 73.355469 100.039062 70.308594 98.242188 68.753906 C 99.09375 69.488281 101.601562 65.199219 101.855469 64.722656 C 106.273438 56.441406 100.558594 45.589844 90.894531 45.589844 C 89.390625 45.589844 87.953125 45.855469 86.621094 46.34375 C 86.621094 46.339844 86.621094 46.332031 86.621094 46.328125 C 86.621094 41.484375 82.6875 37.554688 77.835938 37.554688 C 75.070312 37.554688 72.605469 38.832031 70.992188 40.820312 C 69.390625 39.113281 67.109375 38.042969 64.582031 38.042969 C 60.808594 38.042969 57.59375 40.414062 56.347656 43.746094 C 51.203125 45.261719 47.445312 50.011719 47.445312 55.636719 C 47.445312 56.320312 47.503906 56.988281 47.609375 57.640625 C 46.640625 59.050781 46.070312 60.757812 46.070312 62.597656 C 46.070312 66.707031 48.902344 70.15625 52.726562 71.105469 C 52.613281 71.78125 52.550781 72.472656 52.550781 73.179688 C 52.550781 80.027344 58.113281 85.578125 64.972656 85.578125 C 66.554688 85.578125 68.0625 85.285156 69.453125 84.746094 C 69.324219 84.796875 71.25 86.996094 71.453125 87.167969 C 72.382812 87.949219 73.472656 88.53125 74.640625 88.867188 C 76.941406 89.527344 79.328125 89.023438 81.480469 88.085938 C 85.804688 86.207031 89.234375 82.195312 90.109375 77.535156 " fill-opacity="1" fill-rule="nonzero"/><path fill="#f67316" d="M 89.03125 46.957031 C 87.796875 46.957031 86.589844 47.171875 85.445312 47.589844 L 83.558594 48.277344 L 83.558594 46.253906 C 83.558594 42.421875 80.433594 39.304688 76.59375 39.304688 C 74.476562 39.304688 72.5 40.25 71.171875 41.894531 L 70.15625 43.148438 L 69.054688 41.972656 C 67.722656 40.554688 65.917969 39.769531 63.972656 39.769531 C 61.078125 39.769531 58.457031 41.585938 57.445312 44.289062 L 57.199219 44.945312 L 56.527344 45.140625 C 54.414062 45.765625 52.511719 47.078125 51.171875 48.839844 C 49.789062 50.660156 49.058594 52.832031 49.058594 55.125 C 49.058594 55.6875 49.105469 56.25 49.191406 56.804688 L 49.285156 57.363281 L 48.964844 57.824219 C 48.167969 58.980469 47.75 60.339844 47.75 61.75 C 47.75 64.949219 49.917969 67.722656 53.023438 68.496094 L 54.28125 68.8125 L 54.066406 70.089844 C 53.96875 70.664062 53.917969 71.25 53.917969 71.832031 C 53.917969 77.570312 58.597656 82.238281 64.34375 82.238281 C 65.640625 82.238281 66.90625 82.003906 68.105469 81.539062 L 69.242188 81.101562 L 69.835938 82.164062 C 71.394531 84.949219 74.578125 86.230469 77.65625 85.589844 C 79.464844 85.210938 81.121094 84.285156 82.585938 83.160156 C 85.300781 81.074219 87.453125 78.269531 88.765625 75.109375 C 88.84375 74.914062 88.9375 74.699219 89.125 74.601562 C 89.316406 74.5 89.554688 74.546875 89.769531 74.589844 C 91.472656 74.910156 93.3125 74.460938 94.671875 73.382812 C 96.03125 72.308594 96.890625 70.625 96.96875 68.894531 C 96.449219 69.882812 95.363281 70.539062 94.246094 70.546875 C 96.929688 68.363281 98.835938 65.253906 99.566406 61.882812 C 100.355469 58.230469 98.273438 55.179688 94.347656 56.125 C 95.859375 55.757812 97.335938 54.378906 98.984375 55.171875 C 98.824219 54.089844 98.664062 52.992188 98.246094 51.976562 C 97.570312 50.339844 96.160156 49.425781 94.726562 48.511719 C 93.074219 47.460938 90.972656 46.957031 89.03125 46.957031 " fill-opacity="1" fill-rule="nonzero"/><path fill="#fdae31" d="M 78.878906 43.054688 C 80.710938 43.582031 82.324219 45.179688 82.363281 47.082031 C 80.605469 47.890625 79.617188 51.074219 78.472656 52.558594 C 79.796875 50.84375 81.871094 49.726562 84.03125 49.566406 C 82.804688 50.203125 81.777344 51.222656 81.132812 52.445312 C 81.664062 51.441406 84.601562 50.527344 85.601562 50.257812 C 87.566406 49.730469 89.6875 49.78125 91.609375 50.445312 C 89.101562 50.722656 86.753906 52.21875 85.445312 54.378906 C 86.261719 53.03125 91.457031 51.453125 92.710938 52.625 C 90.234375 53.378906 87.878906 54.472656 85.738281 55.929688 C 87.398438 55.554688 89.085938 55.179688 90.785156 55.261719 C 92.488281 55.34375 94.234375 55.945312 95.347656 57.238281 C 96.496094 58.578125 96.808594 60.492188 96.507812 62.234375 C 96.207031 63.976562 95.367188 65.578125 94.4375 67.082031 C 93.714844 68.246094 92.375 70.015625 90.832031 69.277344 C 90.8125 70.605469 92.242188 71.746094 93.535156 71.433594 C 92.625 72.253906 91.199219 72.449219 90.101562 71.898438 C 89.003906 71.351562 88.300781 70.101562 88.410156 68.878906 C 88.054688 73.109375 87.332031 77.636719 84.367188 80.679688 C 86.242188 78.046875 87.347656 74.875 87.503906 71.648438 C 86.558594 74.207031 85.226562 76.625 83.570312 78.792969 C 82.21875 80.558594 80.585938 82.210938 78.507812 83.007812 C 76.433594 83.804688 73.839844 83.570312 72.296875 81.96875 C 71.183594 80.808594 70.773438 79.15625 70.480469 77.574219 C 69.855469 74.179688 69.625 70.476562 71.324219 67.472656 C 68.949219 69.75 67.632812 72.347656 67.972656 75.640625 C 66.949219 76.023438 65.804688 76.074219 64.75 75.78125 C 65.601562 76.390625 66.582031 76.8125 67.613281 77.011719 C 65.355469 78.457031 62.210938 78.367188 60.042969 76.792969 C 57.875 75.21875 56.816406 72.265625 57.496094 69.675781 C 59.242188 70.023438 61.089844 69.839844 62.730469 69.152344 C 59.160156 67.621094 56.652344 63.886719 56.597656 60.007812 C 55.917969 62.28125 55.914062 64.746094 56.578125 67.019531 C 54.238281 66.910156 52.296875 65.476562 51.578125 63.273438 C 50.839844 61.019531 51.394531 58.394531 52.984375 56.632812 C 52.558594 57.792969 52.644531 59.128906 53.214844 60.226562 C 53.28125 57.359375 54.644531 54.546875 56.859375 52.722656 C 55.0625 53.257812 53.457031 54.421875 52.386719 55.960938 C 52.023438 54.226562 52.65625 52.40625 53.695312 50.96875 C 54.730469 49.53125 56.140625 48.414062 57.53125 47.3125 C 56.742188 48.304688 56.191406 49.484375 55.933594 50.726562 C 58.449219 47.8125 62.433594 46.234375 66.269531 46.625 C 64.574219 45.695312 62.425781 45.640625 60.6875 46.480469 C 61.050781 44.585938 62.707031 43.011719 64.621094 42.742188 C 66.53125 42.476562 68.558594 43.535156 69.429688 45.257812 C 68.574219 45.019531 67.585938 45.40625 67.117188 46.160156 C 69.640625 45.40625 72.558594 46.195312 74.355469 48.113281 C 74.339844 46.550781 73.050781 44.988281 71.5 44.707031 C 71.851562 44.246094 72.398438 43.984375 72.9375 43.761719 C 74.757812 43.011719 76.78125 42.53125 78.691406 43.003906 C 78.753906 43.019531 78.816406 43.035156 78.878906 43.054688 " fill-opacity="1" fill-rule="nonzero"/><path fill="#fdd340" d="M 67.5 51.011719 C 65.367188 50.707031 63.203125 50.898438 61.332031 52.054688 C 62.054688 50.925781 63.117188 50.015625 64.347656 49.472656 C 62.300781 49.691406 60.382812 50.523438 58.78125 51.800781 C 57.359375 52.9375 56.90625 54.367188 55.859375 55.75 C 56.566406 54.816406 58.066406 53.097656 59.375 53.515625 C 57.953125 56.871094 56.175781 61.183594 59.546875 64.046875 C 59.175781 62.382812 59.09375 60.628906 59.519531 58.976562 C 59.945312 57.324219 60.910156 55.78125 62.332031 54.832031 C 61.289062 56.878906 61.617188 59.546875 63.132812 61.273438 C 61.980469 59.957031 64.105469 56.363281 64.84375 55.300781 C 65.929688 53.671875 67.390625 52.375 69.015625 51.3125 C 68.515625 51.1875 68.007812 51.085938 67.5 51.011719 " fill-opacity="1" fill-rule="nonzero"/><path fill="#fdd340" d="M 62.238281 74.65625 C 62.230469 73.328125 62.199219 73.222656 61.351562 72.652344 C 61.132812 72.503906 59.140625 72.292969 59.261719 71.714844 C 59 72.988281 59.476562 74.160156 60.339844 75.078125 C 61 75.78125 62.222656 75.886719 62.777344 76.425781 C 62.324219 75.980469 62.238281 75.289062 62.238281 74.65625 " fill-opacity="1" fill-rule="nonzero"/><path fill="#fdd340" d="M 80.121094 45.699219 C 79.914062 44.976562 79.160156 44.421875 78.132812 44.242188 C 77.183594 44.074219 76.1875 44.289062 75.332031 44.695312 C 75.238281 44.738281 75.277344 44.886719 75.382812 44.871094 C 75.839844 44.804688 76.277344 44.804688 76.714844 44.863281 C 77.855469 45.539062 78.597656 46.625 79.398438 47.644531 C 80.09375 46.964844 80.285156 46.277344 80.121094 45.699219 " fill-opacity="1" fill-rule="nonzero"/><path fill="#fdd340" d="M 30.480469 64.949219 C 30.179688 64.417969 30.074219 63.800781 29.972656 63.199219 C 29.164062 65.882812 30.097656 69.003906 32.246094 70.804688 C 34.398438 72.605469 37.640625 72.980469 40.144531 71.722656 C 34.234375 71.003906 33.070312 63.589844 34.578125 59.121094 C 34.785156 58.503906 35.023438 57.84375 35.550781 57.460938 C 34.054688 58.363281 32.902344 59.800781 32.277344 61.425781 C 32.152344 61.757812 31.402344 65.875 31.890625 65.875 C 31.277344 65.875 30.789062 65.492188 30.480469 64.949219 " fill-opacity="1" fill-rule="nonzero"/><path fill="#fdd340" d="M 44.121094 52.441406 C 43.621094 52.234375 42.976562 52.480469 42.480469 52.632812 C 41.871094 52.820312 41.289062 53.074219 40.730469 53.386719 C 39.710938 53.964844 38.820312 54.746094 38.023438 55.601562 C 37.957031 55.671875 38.078125 55.789062 38.152344 55.71875 C 38.996094 54.917969 39.980469 54.363281 41.070312 53.960938 C 41.585938 53.769531 42.113281 53.621094 42.652344 53.519531 C 43.171875 53.417969 43.792969 53.453125 44.234375 53.148438 C 44.503906 52.960938 44.390625 52.554688 44.121094 52.441406 " fill-opacity="1" fill-rule="nonzero"/><path fill="#fdd340" d="M 55.777344 35.234375 C 56.898438 34.9375 58.082031 34.769531 59.261719 34.75 C 58.253906 34.199219 57.035156 34.0625 55.875 34.070312 C 53.28125 34.082031 51.511719 35.675781 51.011719 37.945312 C 52.230469 36.570312 54.046875 35.691406 55.777344 35.234375 " fill-opacity="1" fill-rule="nonzero"/><path fill="#e93405" d="M 89.273438 39.882812 C 93.976562 38.230469 99.371094 38.953125 103.777344 41.285156 C 104.328125 40.210938 105.046875 38.835938 105.136719 38.632812 C 105.527344 37.746094 105.890625 36.828125 106.164062 35.890625 C 106.402344 35.074219 106.566406 34.238281 106.609375 33.390625 C 106.839844 28.949219 104.117188 23.316406 99.144531 23.011719 C 97.445312 22.90625 95.757812 23.464844 94.277344 24.3125 C 91.492188 25.910156 89.292969 28.679688 88.8125 31.839844 C 88.800781 31.015625 87.847656 30.261719 87.046875 30.578125 C 86.285156 30.875 85.988281 31.78125 85.863281 32.585938 C 85.457031 35.230469 86.457031 38.128906 87.410156 40.679688 C 88.007812 40.375 88.628906 40.109375 89.273438 39.882812 " fill-opacity="1" fill-rule="nonzero"/><path fill="#f67316" d="M 93.054688 36.960938 C 96.601562 36.277344 100.40625 36.878906 103.613281 38.574219 C 104.011719 37.804688 104.53125 36.8125 104.59375 36.664062 C 104.875 36.027344 105.136719 35.367188 105.332031 34.691406 C 105.503906 34.101562 105.621094 33.503906 105.652344 32.890625 C 105.984375 26.523438 98.914062 22.164062 93.765625 26.484375 C 91.734375 28.191406 90.558594 30.738281 90.042969 33.339844 C 89.894531 32.378906 88.46875 31.933594 87.796875 32.636719 C 87.367188 33.09375 87.316406 33.78125 87.332031 34.40625 C 87.371094 35.929688 87.65625 37.449219 88.179688 38.878906 C 89.679688 37.925781 91.335938 37.292969 93.054688 36.960938 " fill-opacity="1" fill-rule="nonzero"/><path fill="#fdae31" d="M 96.28125 26.6875 C 97.167969 26.160156 98.136719 25.859375 99.105469 25.917969 C 100.367188 25.996094 101.503906 26.738281 102.355469 27.667969 C 104.46875 29.96875 104.867188 33.386719 103.589844 36.207031 C 103.976562 33.546875 102.417969 30.71875 99.953125 29.625 C 97.492188 28.53125 94.347656 29.265625 92.625 31.335938 C 93.113281 29.625 94.535156 27.722656 96.28125 26.6875 " fill-opacity="1" fill-rule="nonzero"/><path fill="#e93405" d="M 81.644531 74.203125 C 81.621094 74.242188 81.589844 74.289062 81.5625 74.335938 C 81.574219 74.292969 81.589844 74.246094 81.609375 74.195312 C 81.621094 74.199219 81.632812 74.199219 81.644531 74.203125 Z M 85.074219 71.730469 C 85.042969 71.183594 84.828125 70.671875 84.304688 70.273438 C 83.03125 69.304688 81.433594 69.945312 80.402344 70.9375 C 79.410156 71.890625 78.691406 73.171875 78.542969 74.554688 C 78.398438 75.890625 78.960938 77.355469 80.300781 77.84375 C 81.863281 78.414062 83.28125 77.207031 84.042969 75.960938 C 84.726562 74.84375 85.679688 73.050781 85.074219 71.730469 " fill-opacity="1" fill-rule="nonzero"/><path fill="#e93405" d="M 93.308594 67.648438 C 93.230469 67.585938 93.148438 67.53125 93.058594 67.488281 C 92.53125 67.230469 91.890625 67.300781 91.367188 67.539062 C 91.304688 67.5625 91.246094 67.585938 91.191406 67.609375 C 90.964844 67.707031 90.769531 67.832031 90.601562 67.984375 C 90.296875 68.203125 90.035156 68.472656 89.902344 68.808594 C 89.777344 69.140625 89.808594 69.480469 89.949219 69.769531 C 89.972656 69.910156 90.027344 70.042969 90.109375 70.148438 C 90.3125 70.40625 90.613281 70.53125 90.9375 70.570312 C 91.4375 70.699219 92.035156 70.628906 92.515625 70.484375 C 93.101562 70.308594 93.625 69.910156 93.832031 69.316406 C 94.054688 68.683594 93.820312 68.015625 93.308594 67.648438 " fill-opacity="1" fill-rule="nonzero"/><path fill="#f67316" d="M 83.164062 71.085938 C 82.082031 70.640625 81.15625 71.375 80.527344 72.175781 C 79.992188 72.855469 79.453125 73.777344 79.402344 74.65625 C 79.382812 74.96875 79.460938 75.253906 79.601562 75.488281 C 79.691406 75.777344 79.859375 76.039062 80.125 76.253906 C 81.765625 77.601562 83.597656 75.128906 84.023438 73.714844 C 84.328125 72.707031 84.292969 71.554688 83.164062 71.085938 " fill-opacity="1" fill-rule="nonzero"/><path fill="#f67316" d="M 92.449219 69.347656 C 92.476562 69.101562 92.386719 68.859375 92.179688 68.703125 C 92.097656 68.644531 92.003906 68.621094 91.90625 68.625 C 91.867188 68.601562 91.839844 68.589844 91.898438 68.628906 C 91.613281 68.453125 91.179688 68.476562 90.984375 68.789062 C 90.855469 69 90.785156 69.226562 90.835938 69.476562 C 90.886719 69.730469 91.03125 69.960938 91.265625 70.085938 C 91.488281 70.203125 91.742188 70.214844 91.980469 70.121094 C 92.195312 70.03125 92.324219 69.851562 92.425781 69.65625 C 92.472656 69.570312 92.472656 69.453125 92.449219 69.347656 " fill-opacity="1" fill-rule="nonzero"/><path fill="#fdae31" d="M 82.75 72.292969 C 82.65625 71.621094 81.882812 71.398438 81.375 71.761719 C 81.035156 72 80.742188 72.316406 80.539062 72.675781 C 80.429688 72.871094 80.328125 73.066406 80.265625 73.277344 C 80.160156 73.621094 80.191406 73.863281 80.304688 74.1875 C 80.449219 74.597656 80.878906 74.722656 81.25 74.617188 C 81.316406 74.625 81.386719 74.625 81.457031 74.617188 C 82.429688 74.488281 82.867188 73.121094 82.75 72.292969 " fill-opacity="1" fill-rule="nonzero"/><path fill="#fdd340" d="M 103.652344 32.417969 C 103.335938 31.136719 102.695312 30.011719 101.625 29.425781 C 100.621094 28.875 99.613281 28.640625 98.460938 28.6875 C 97.417969 28.730469 96.359375 29.058594 95.390625 29.429688 C 95.28125 29.472656 95.335938 29.632812 95.445312 29.617188 C 98.152344 29.335938 101.070312 30.625 101.265625 33.660156 C 99.941406 32.949219 98.324219 32.917969 96.878906 33.335938 C 95.433594 33.753906 94.140625 34.589844 92.988281 35.550781 C 94.78125 35.292969 96.609375 35.152344 98.410156 35.382812 C 100.210938 35.609375 101.988281 36.21875 103.421875 37.332031 C 103.90625 36.007812 104.058594 34.082031 103.652344 32.417969 " fill-opacity="1" fill-rule="nonzero"/><path fill="#e93405" d="M 41.007812 18.164062 C 41.160156 18.292969 41.3125 18.394531 41.46875 18.480469 C 42.175781 17.207031 43.144531 16.066406 44.246094 15.121094 C 45.570312 13.980469 47.085938 12.988281 48.707031 12.253906 C 48.773438 12.015625 48.828125 11.777344 48.875 11.535156 C 49.183594 9.894531 48.652344 8.03125 47.058594 7.277344 C 43.324219 5.507812 40.574219 9.925781 39.910156 13.011719 C 39.5625 14.640625 39.605469 16.980469 41.007812 18.164062 " fill-opacity="1" fill-rule="nonzero"/><path fill="#e93405" d="M 72.113281 31.335938 C 71.34375 30.171875 69.238281 29.875 68.132812 30.703125 C 67.425781 31.234375 67.039062 32.179688 67.378906 33.035156 C 67.683594 33.800781 68.46875 34.265625 69.28125 34.171875 C 69.492188 34.222656 69.707031 34.25 69.917969 34.25 C 70.644531 34.261719 71.367188 34.09375 71.886719 33.5625 C 72.472656 32.964844 72.574219 32.035156 72.113281 31.335938 " fill-opacity="1" fill-rule="nonzero"/><path fill="#e93405" d="M 39.421875 36.542969 C 39.324219 36 38.988281 35.492188 38.453125 35.300781 C 38.097656 35.171875 37.71875 35.203125 37.402344 35.398438 C 37.3125 35.421875 37.222656 35.453125 37.140625 35.492188 C 36.738281 35.660156 36.40625 35.988281 36.253906 36.4375 C 35.929688 37.414062 36.703125 38.378906 37.691406 38.457031 C 38.753906 38.542969 39.609375 37.585938 39.421875 36.542969 " fill-opacity="1" fill-rule="nonzero"/><path fill="#e93405" d="M 22.253906 72.429688 C 21.960938 71.652344 20.902344 71.636719 20.445312 72.238281 C 19.984375 72.84375 19.726562 73.726562 20.027344 74.449219 C 20.199219 74.851562 20.691406 75.140625 21.128906 75.054688 C 21.402344 75 21.621094 74.863281 21.773438 74.667969 C 22.039062 74.5 22.242188 74.246094 22.359375 73.945312 C 22.546875 73.449219 22.4375 72.90625 22.253906 72.429688 " fill-opacity="1" fill-rule="nonzero"/><path fill="#fdae31" d="M 46.867188 8.75 C 46.210938 8.121094 45.152344 7.90625 44.253906 8.15625 C 43.140625 8.464844 42.066406 9.640625 41.539062 10.625 C 41.074219 11.492188 40.726562 12.433594 40.644531 13.414062 C 40.566406 14.390625 40.773438 15.414062 41.335938 16.214844 C 42.082031 14.925781 43.226562 13.945312 44.464844 13.148438 C 44.679688 13.007812 47.773438 11.324219 47.796875 11.378906 C 47.5625 10.871094 47.558594 10.292969 47.433594 9.75 C 47.339844 9.347656 47.136719 9.015625 46.867188 8.75 " fill-opacity="1" fill-rule="nonzero"/><path fill="#fdae31" d="M 70.136719 30.402344 C 69.136719 30.515625 68.503906 31.59375 68.898438 32.519531 C 69.085938 32.964844 69.554688 33.285156 70.035156 33.320312 C 70.335938 33.339844 70.671875 33.257812 70.933594 33.085938 C 71.367188 33.007812 71.753906 32.75 71.894531 32.296875 C 72.226562 31.21875 71.1875 30.285156 70.136719 30.402344 " fill-opacity="1" fill-rule="nonzero"/><path fill="#fdae31" d="M 38.625 36.308594 C 38.59375 36.144531 38.507812 35.953125 38.355469 35.871094 C 38.222656 35.796875 38.105469 35.738281 37.953125 35.722656 C 37.8125 35.707031 37.675781 35.730469 37.542969 35.78125 C 37.460938 35.8125 37.378906 35.863281 37.308594 35.917969 C 37.21875 35.988281 37.152344 36.074219 37.109375 36.167969 C 36.972656 36.398438 36.933594 36.6875 37.039062 36.941406 C 37.175781 37.261719 37.515625 37.453125 37.859375 37.414062 C 37.953125 37.402344 38.050781 37.371094 38.132812 37.328125 C 38.292969 37.242188 38.453125 37.117188 38.511719 36.941406 C 38.535156 36.867188 38.546875 36.789062 38.550781 36.714844 C 38.613281 36.589844 38.652344 36.453125 38.625 36.308594 " fill-opacity="1" fill-rule="nonzero"/><path fill="#fdae31" d="M 21.507812 73.773438 C 21.496094 73.738281 21.488281 73.703125 21.472656 73.667969 C 21.417969 73.558594 21.335938 73.472656 21.21875 73.441406 C 21.023438 73.347656 20.789062 73.480469 20.761719 73.703125 C 20.757812 73.738281 20.761719 73.765625 20.773438 73.792969 C 20.71875 73.980469 20.804688 74.207031 21.003906 74.273438 C 21.183594 74.332031 21.449219 74.257812 21.5 74.046875 C 21.527344 73.953125 21.535156 73.867188 21.507812 73.773438 " fill-opacity="1" fill-rule="nonzero"/><path fill="#fdd340" d="M 70.828125 31.542969 C 70.800781 31.382812 70.699219 31.203125 70.5625 31.113281 C 70.425781 31.023438 70.253906 30.96875 70.085938 31 C 69.902344 31.035156 69.78125 31.128906 69.65625 31.261719 C 69.585938 31.339844 69.515625 31.417969 69.445312 31.492188 C 69.410156 31.53125 69.375 31.570312 69.339844 31.609375 C 69.246094 31.722656 69.214844 31.839844 69.191406 31.976562 C 69.152344 32.195312 69.277344 32.429688 69.449219 32.554688 C 69.597656 32.660156 69.75 32.679688 69.910156 32.65625 C 69.910156 32.65625 69.910156 32.660156 69.910156 32.664062 C 69.972656 32.648438 70.042969 32.632812 70.101562 32.609375 C 70.109375 32.605469 70.113281 32.601562 70.121094 32.597656 C 70.371094 32.507812 70.570312 32.316406 70.730469 32.105469 C 70.816406 32 70.84375 31.867188 70.824219 31.738281 C 70.835938 31.667969 70.835938 31.597656 70.828125 31.542969 " fill-opacity="1" fill-rule="nonzero"/><path fill="#fdd340" d="M 45.671875 8.957031 C 45.496094 8.9375 45.3125 8.941406 45.136719 8.957031 C 44.320312 9.039062 43.53125 9.382812 42.910156 9.921875 C 41.796875 10.894531 41.167969 13.546875 41.421875 14.933594 C 42.777344 13.058594 44.746094 11.632812 46.957031 10.929688 C 46.730469 10.386719 46.804688 9.699219 46.394531 9.28125 C 46.203125 9.085938 45.945312 8.992188 45.671875 8.957031 " fill-opacity="1" fill-rule="nonzero"/><path fill="#fdd340" d="M 37.878906 35.996094 C 37.734375 35.949219 37.527344 35.980469 37.445312 36.128906 C 37.414062 36.183594 37.382812 36.242188 37.347656 36.296875 C 37.335938 36.324219 37.320312 36.351562 37.304688 36.375 C 37.296875 36.386719 37.292969 36.398438 37.285156 36.410156 C 37.171875 36.503906 37.117188 36.691406 37.140625 36.832031 C 37.167969 37.019531 37.316406 37.175781 37.5 37.21875 C 37.667969 37.257812 37.835938 37.207031 37.953125 37.082031 C 38.085938 36.941406 38.113281 36.75 38.046875 36.570312 C 38.070312 36.636719 38.078125 36.675781 38.082031 36.699219 C 38.082031 36.691406 38.082031 36.675781 38.085938 36.65625 C 38.089844 36.625 38.09375 36.59375 38.097656 36.566406 L 38.121094 36.382812 C 38.140625 36.226562 38.035156 36.046875 37.878906 35.996094 " fill-opacity="1" fill-rule="nonzero"/><path fill="#e93405" d="M 99.003906 43.339844 C 98.917969 43.335938 98.832031 43.328125 98.746094 43.320312 C 98.746094 43.292969 98.746094 43.265625 98.746094 43.242188 C 98.78125 43.175781 98.8125 43.105469 98.835938 43.039062 C 98.945312 42.730469 98.972656 42.308594 98.804688 42.011719 C 98.457031 41.414062 97.992188 41.160156 97.304688 41.191406 C 96.480469 41.222656 95.714844 41.925781 95.398438 42.648438 C 95.085938 43.359375 95.144531 44.183594 95.546875 44.84375 C 95.8125 45.277344 96.171875 45.59375 96.585938 45.824219 C 97.265625 46.367188 98.234375 46.5625 99.074219 46.332031 C 99.8125 46.128906 100.363281 45.617188 100.34375 44.804688 C 100.328125 44.085938 99.761719 43.390625 99.003906 43.339844 " fill-opacity="1" fill-rule="nonzero"/><path fill="#fee56d" d="M 80.183594 30.601562 C 78.90625 30.507812 77.699219 31.132812 76.742188 31.921875 C 75.828125 32.671875 74.535156 33.988281 75.128906 35.28125 C 75.453125 35.988281 76.125 36.261719 76.871094 36.304688 C 78.011719 36.5 79.332031 36.179688 80.378906 35.746094 C 81.488281 35.28125 82.601562 34.414062 82.636719 33.109375 C 82.671875 31.773438 81.472656 30.703125 80.183594 30.601562 " fill-opacity="1" fill-rule="nonzero"/><path fill="#fee56d" d="M 73.316406 35.789062 C 73.070312 35.589844 72.6875 35.5625 72.382812 35.621094 C 72.058594 35.679688 71.753906 35.835938 71.550781 36.105469 C 71.332031 36.402344 71.238281 36.847656 71.410156 37.191406 C 71.492188 37.363281 71.617188 37.519531 71.777344 37.628906 C 71.945312 37.746094 72.09375 37.78125 72.296875 37.824219 C 72.425781 37.855469 72.621094 37.808594 72.742188 37.757812 C 72.910156 37.683594 73.046875 37.558594 73.136719 37.402344 C 73.167969 37.371094 73.199219 37.339844 73.222656 37.304688 C 73.308594 37.191406 73.121094 37.429688 73.199219 37.324219 C 73.21875 37.296875 73.238281 37.273438 73.265625 37.25 C 73.359375 37.1875 73.445312 37.113281 73.515625 37.007812 C 73.792969 36.597656 73.691406 36.101562 73.316406 35.789062 " fill-opacity="1" fill-rule="nonzero"/><path fill="#fee56d" d="M 45.644531 36.515625 C 45.589844 35.429688 45.027344 34.390625 43.910156 34.113281 C 42.769531 33.828125 41.648438 34.464844 41.105469 35.460938 C 40.28125 36.984375 40.238281 39.5 41.785156 40.597656 C 42.371094 41.011719 43.164062 41.15625 43.832031 40.863281 C 43.910156 40.832031 43.980469 40.792969 44.050781 40.753906 C 44.558594 40.539062 44.984375 40.117188 45.238281 39.601562 C 45.6875 38.679688 45.695312 37.519531 45.644531 36.515625 " fill-opacity="1" fill-rule="nonzero"/><path fill="#fee56d" d="M 42.78125 41.558594 C 42.699219 41.320312 42.527344 41.128906 42.316406 41 C 42.101562 40.867188 41.871094 40.78125 41.617188 40.773438 C 41.261719 40.757812 41.003906 40.867188 40.707031 41.050781 C 40.578125 41.132812 40.457031 41.328125 40.40625 41.464844 C 40.332031 41.667969 40.332031 41.882812 40.390625 42.085938 C 40.503906 42.488281 40.824219 42.710938 41.222656 42.789062 C 41.394531 42.824219 41.5625 42.824219 41.738281 42.816406 C 41.8125 42.84375 41.894531 42.859375 41.980469 42.871094 C 42.289062 42.90625 42.703125 42.699219 42.785156 42.375 C 42.804688 42.296875 42.824219 42.21875 42.84375 42.140625 C 42.792969 42.339844 42.796875 42.316406 42.855469 42.066406 C 42.875 41.882812 42.839844 41.726562 42.78125 41.558594 " fill-opacity="1" fill-rule="nonzero"/><path fill="#fee56d" d="M 54.25 23.40625 C 52.714844 23.441406 51.183594 23.746094 49.75 24.300781 C 47.046875 25.351562 45.003906 27.59375 43.925781 30.285156 C 46.601562 28.5 49.308594 28.707031 52.335938 28.488281 C 53.992188 28.367188 55.660156 28.417969 57.308594 28.632812 C 58.003906 28.722656 61.886719 29.097656 62.144531 29.777344 C 61.734375 28.707031 60.84375 27.828125 59.765625 27.429688 C 61.875 27.492188 63.828125 29.144531 64.230469 31.210938 C 64.378906 29.367188 63.464844 27.546875 62.105469 26.285156 C 60.199219 24.515625 56.863281 23.355469 54.277344 23.40625 C 54.269531 23.40625 54.257812 23.40625 54.25 23.40625 " fill-opacity="1" fill-rule="nonzero"/><path fill="#e93405" d="M 83.539062 79.515625 C 83.492188 78.71875 82.542969 78.339844 81.886719 78.632812 C 81.660156 78.660156 81.445312 78.746094 81.273438 78.902344 C 80.785156 79.339844 80.433594 79.972656 80.449219 80.644531 C 80.460938 81.105469 80.566406 81.507812 80.96875 81.792969 C 81.292969 82.023438 81.832031 82.128906 82.199219 81.921875 C 82.648438 81.664062 83.007812 81.359375 83.257812 80.898438 C 83.492188 80.453125 83.566406 80.015625 83.539062 79.515625 " fill-opacity="1" fill-rule="nonzero"/><path fill="#e93405" d="M 22.347656 58.429688 C 22.429688 58.390625 22.5 58.347656 22.5625 58.300781 C 22.175781 57.769531 21.890625 57.15625 21.707031 56.527344 C 21.492188 55.773438 21.367188 54.964844 21.371094 54.164062 C 21.289062 54.09375 21.199219 54.023438 21.109375 53.960938 C 20.492188 53.523438 19.628906 53.390625 19.015625 53.898438 C 17.585938 55.09375 18.882812 57.050781 20.023438 57.90625 C 20.628906 58.355469 21.597656 58.78125 22.347656 58.429688 " fill-opacity="1" fill-rule="nonzero"/><path fill="#fdae31" d="M 19.585938 54.257812 C 19.203125 54.40625 18.917969 54.796875 18.847656 55.214844 C 18.765625 55.726562 19.046875 56.386719 19.351562 56.789062 C 19.621094 57.144531 19.941406 57.464844 20.328125 57.679688 C 20.714844 57.898438 21.171875 58.003906 21.609375 57.925781 C 21.222656 57.378906 21.035156 56.726562 20.9375 56.066406 C 20.921875 55.953125 20.816406 54.371094 20.839844 54.371094 C 20.589844 54.371094 20.351562 54.265625 20.105469 54.214844 C 19.921875 54.175781 19.746094 54.195312 19.585938 54.257812 " fill-opacity="1" fill-rule="nonzero"/><path fill="#fdd340" d="M 19.445312 54.785156 C 19.40625 54.851562 19.371094 54.929688 19.34375 55.003906 C 19.226562 55.351562 19.214844 55.742188 19.320312 56.09375 C 19.511719 56.734375 20.480469 57.492188 21.097656 57.648438 C 20.585938 56.742188 20.371094 55.667969 20.496094 54.628906 C 20.230469 54.621094 19.964844 54.460938 19.714844 54.550781 C 19.601562 54.589844 19.511719 54.679688 19.445312 54.785156 " fill-opacity="1" fill-rule="nonzero"/><path fill="#fdd340" d="M 75.296875 67.882812 C 73.371094 71.585938 72.15625 76.617188 73.070312 80.769531 C 70.53125 75.675781 70.964844 69.894531 73.609375 64.933594 C 70.65625 65.949219 68.054688 67.953125 66.324219 70.550781 C 66.199219 67.203125 67.648438 63.835938 70.164062 61.621094 C 69.144531 62.703125 68.398438 64.175781 68.28125 65.664062 C 69.582031 63.796875 72.851562 62.28125 74.894531 61.351562 C 77.6875 60.085938 80.707031 59.363281 83.722656 58.867188 C 82.328125 59.097656 79.835938 61.667969 78.914062 62.683594 C 77.515625 64.222656 76.257812 66.035156 75.296875 67.882812 " fill-opacity="1" fill-rule="nonzero"/></svg>