<svg xmlns="http://www.w3.org/2000/svg" xmlns:xlink="http://www.w3.org/1999/xlink" width="500" zoomAndPan="magnify" viewBox="0 0 375 374.999991" height="500" preserveAspectRatio="xMidYMid meet" version="1.0"><rect x="-37.5" width="450" fill="#ffffff" y="-37.499999" height="449.999989" fill-opacity="1"/><rect x="-37.5" width="450" fill="#ffffff" y="-37.499999" height="449.999989" fill-opacity="1"/><rect x="-37.5" width="450" fill="#ffffff" y="-37.499999" height="449.999989" fill-opacity="1"/><path stroke-linecap="butt" transform="matrix(0, -1.144638, 1.143144, 0, -13.30836, 430.320356)" fill="none" stroke-linejoin="miter" d="M 0.501697 0.498694 L 400.498445 0.498694 L 400.498445 350.49969 L 0.501697 350.49969 Z M 0.501697 0.498694 " stroke="#cbcbcb" stroke-width="1" stroke-opacity="1" stroke-miterlimit="10"/><path fill="#f6f6f6" d="M 159.5625 317.839844 C 159.5625 253.085938 298.152344 242.980469 298.152344 216.808594 C 298.152344 190.632812 215.308594 179.078125 215.308594 142.066406 C 215.308594 91.195312 365.132812 65.742188 365.132812 -19.832031 C 365.132812 -19.941406 365.132812 -20.054688 365.132812 -20.164062 L -5.65625 -20.164062 L -5.65625 422.34375 L 337.964844 422.34375 C 282.140625 407.078125 159.5625 367.859375 159.5625 317.839844 Z M 46.65625 77.53125 C 46.65625 42.734375 74.824219 14.53125 109.578125 14.53125 C 144.324219 14.53125 172.492188 42.734375 172.492188 77.53125 C 172.492188 112.324219 144.324219 140.527344 109.578125 140.527344 C 74.824219 140.527344 46.65625 112.324219 46.65625 77.53125 Z M 46.65625 77.53125 " fill-opacity="1" fill-rule="nonzero"/><path fill="#d1d2d2" d="M 379.117188 -20.164062 L 365.132812 -20.164062 C 365.132812 -20.050781 365.132812 -19.941406 365.132812 -19.828125 C 365.132812 65.746094 215.308594 91.1875 215.308594 142.066406 C 215.308594 179.078125 298.152344 190.636719 298.152344 216.8125 C 298.152344 242.980469 159.5625 253.089844 159.5625 317.84375 C 159.5625 367.863281 282.140625 407.078125 337.964844 422.347656 L 379.117188 422.347656 Z M 379.117188 -20.164062 " fill-opacity="1" fill-rule="nonzero"/><path fill="#d1d2d2" d="M 109.570312 14.53125 C 111.632812 14.53125 113.6875 14.632812 115.738281 14.832031 C 117.789062 15.035156 119.824219 15.339844 121.847656 15.742188 C 123.867188 16.144531 125.863281 16.644531 127.835938 17.242188 C 129.808594 17.84375 131.746094 18.535156 133.648438 19.324219 C 135.554688 20.117188 137.414062 20.996094 139.230469 21.96875 C 141.046875 22.941406 142.8125 24 144.527344 25.148438 C 146.238281 26.292969 147.894531 27.523438 149.484375 28.832031 C 151.078125 30.140625 152.605469 31.523438 154.0625 32.984375 C 155.519531 34.441406 156.898438 35.96875 158.207031 37.5625 C 159.515625 39.160156 160.742188 40.8125 161.886719 42.53125 C 163.03125 44.246094 164.089844 46.011719 165.058594 47.832031 C 166.03125 49.652344 166.910156 51.515625 167.699219 53.421875 C 168.488281 55.328125 169.183594 57.269531 169.78125 59.242188 C 170.378906 61.21875 170.878906 63.214844 171.28125 65.238281 C 171.683594 67.261719 171.984375 69.300781 172.1875 71.355469 C 172.386719 73.410156 172.488281 75.46875 172.488281 77.53125 C 172.488281 79.59375 172.386719 81.652344 172.1875 83.707031 C 171.984375 85.757812 171.683594 87.796875 171.28125 89.820312 C 170.878906 91.84375 170.378906 93.84375 169.78125 95.816406 C 169.183594 97.792969 168.488281 99.734375 167.699219 101.640625 C 166.910156 103.546875 166.03125 105.410156 165.058594 107.226562 C 164.089844 109.046875 163.03125 110.816406 161.886719 112.53125 C 160.742188 114.246094 159.515625 115.902344 158.207031 117.496094 C 156.898438 119.09375 155.519531 120.617188 154.0625 122.078125 C 152.605469 123.535156 151.078125 124.921875 149.484375 126.230469 C 147.894531 127.539062 146.238281 128.765625 144.527344 129.914062 C 142.8125 131.058594 141.046875 132.117188 139.230469 133.089844 C 137.414062 134.0625 135.554688 134.945312 133.648438 135.734375 C 131.746094 136.523438 129.808594 137.21875 127.835938 137.816406 C 125.863281 138.417969 123.867188 138.917969 121.847656 139.320312 C 119.824219 139.722656 117.789062 140.023438 115.738281 140.226562 C 113.6875 140.429688 111.632812 140.53125 109.570312 140.53125 C 107.511719 140.53125 105.457031 140.429688 103.40625 140.226562 C 101.355469 140.023438 99.316406 139.722656 97.296875 139.320312 C 95.277344 138.917969 93.28125 138.417969 91.308594 137.816406 C 89.335938 137.21875 87.398438 136.523438 85.492188 135.734375 C 83.589844 134.945312 81.730469 134.0625 79.914062 133.089844 C 78.09375 132.117188 76.328125 131.058594 74.617188 129.914062 C 72.902344 128.765625 71.25 127.539062 69.65625 126.230469 C 68.0625 124.921875 66.539062 123.535156 65.082031 122.078125 C 63.625 120.617188 62.242188 119.09375 60.9375 117.496094 C 59.628906 115.902344 58.402344 114.246094 57.257812 112.53125 C 56.113281 110.816406 55.054688 109.046875 54.082031 107.226562 C 53.113281 105.410156 52.230469 103.546875 51.445312 101.640625 C 50.65625 99.734375 49.960938 97.792969 49.363281 95.816406 C 48.765625 93.84375 48.265625 91.84375 47.863281 89.820312 C 47.460938 87.796875 47.160156 85.757812 46.957031 83.707031 C 46.753906 81.652344 46.652344 79.59375 46.652344 77.53125 C 46.652344 75.46875 46.753906 73.410156 46.957031 71.355469 C 47.160156 69.300781 47.460938 67.261719 47.863281 65.238281 C 48.265625 63.214844 48.765625 61.21875 49.363281 59.242188 C 49.960938 57.269531 50.65625 55.328125 51.445312 53.421875 C 52.230469 51.515625 53.113281 49.652344 54.082031 47.832031 C 55.054688 46.011719 56.113281 44.246094 57.257812 42.53125 C 58.402344 40.8125 59.628906 39.160156 60.9375 37.5625 C 62.242188 35.96875 63.625 34.441406 65.082031 32.984375 C 66.539062 31.523438 68.0625 30.140625 69.65625 28.832031 C 71.25 27.523438 72.902344 26.292969 74.617188 25.148438 C 76.328125 24 78.09375 22.941406 79.914062 21.96875 C 81.730469 20.996094 83.589844 20.117188 85.492188 19.324219 C 87.398438 18.535156 89.335938 17.84375 91.308594 17.242188 C 93.28125 16.644531 95.277344 16.144531 97.296875 15.742188 C 99.316406 15.339844 101.355469 15.035156 103.40625 14.832031 C 105.457031 14.632812 107.511719 14.53125 109.570312 14.53125 Z M 109.570312 14.53125 " fill-opacity="1" fill-rule="nonzero"/></svg>