<svg xmlns="http://www.w3.org/2000/svg" xmlns:xlink="http://www.w3.org/1999/xlink" width="500" zoomAndPan="magnify" viewBox="0 0 375 374.999991" height="500" preserveAspectRatio="xMidYMid meet" version="1.0"><rect x="-37.5" width="450" fill="#ffffff" y="-37.499999" height="449.999989" fill-opacity="1"/><rect x="-37.5" width="450" fill="#ffffff" y="-37.499999" height="449.999989" fill-opacity="1"/><path fill="#ffffff" d="M 5.984375 369.011719 L 369.015625 369.011719 L 369.015625 5.988281 L 5.984375 5.988281 Z M 5.984375 369.011719 " fill-opacity="1" fill-rule="nonzero"/><path fill="#d1d2d2" d="M 22.914062 352.941406 L 22.246094 96.335938 L 22.054688 22.921875 L 352.078125 22.058594 L 352.214844 75.191406 L 352.9375 352.082031 Z M 22.914062 352.941406 " fill-opacity="1" fill-rule="nonzero"/><path fill="#d1d2d2" d="M 363.96875 363.054688 L 363.050781 11.027344 L 11.03125 11.945312 L 11.945312 363.96875 L 363.96875 363.054688 M 375 374.027344 L 364 374.054688 L 11.976562 374.972656 L 0.972656 375 L 0.945312 363.996094 L 0.0273438 11.972656 L 0 0.972656 L 11 0.945312 L 363.027344 0.03125 L 374.023438 0 L 374.054688 11 L 374.96875 363.023438 Z M 375 374.027344 " fill-opacity="1" fill-rule="nonzero"/><path fill="#717273" d="M 299.9375 102.640625 C 261.164062 119.003906 227.558594 132.796875 227.558594 132.796875 C 227.558594 132.796875 227.558594 150.015625 227.558594 162.082031 C 227.558594 174.152344 247.382812 187.082031 247.382812 237.058594 C 247.382812 285.105469 225.046875 311.554688 189.632812 313.558594 C 189.632812 313.605469 189.632812 313.699219 189.632812 313.746094 C 188.902344 313.746094 188.210938 313.671875 187.496094 313.648438 C 186.757812 313.671875 186.074219 313.746094 185.335938 313.746094 C 185.335938 313.699219 185.335938 313.605469 185.335938 313.558594 C 149.925781 311.554688 127.589844 285.105469 127.589844 237.058594 C 127.589844 187.082031 147.414062 174.148438 147.414062 162.082031 C 147.414062 150.019531 147.414062 132.796875 147.414062 132.796875 C 147.414062 132.796875 113.808594 119.003906 75.027344 102.640625 C 36.242188 86.246094 22.476562 63.003906 22.476562 50.0625 C 22.476562 37.136719 22.476562 23.359375 22.476562 23.359375 L 352.5 23.359375 C 352.5 23.359375 352.5 37.136719 352.5 50.0625 C 352.507812 63 338.695312 86.246094 299.9375 102.640625 Z M 299.9375 102.640625 " fill-opacity="1" fill-rule="nonzero"/></svg>