<svg xmlns="http://www.w3.org/2000/svg" xmlns:xlink="http://www.w3.org/1999/xlink" width="500" zoomAndPan="magnify" viewBox="0 0 375 374.999991" height="500" preserveAspectRatio="xMidYMid meet" version="1.0"><rect x="-37.5" width="450" fill="#ffffff" y="-37.499999" height="449.999989" fill-opacity="1"/><rect x="-37.5" width="450" fill="#ffffff" y="-37.499999" height="449.999989" fill-opacity="1"/><rect x="-37.5" width="450" fill="#ffffff" y="-37.499999" height="449.999989" fill-opacity="1"/><path stroke-linecap="butt" transform="matrix(-1.137153, 0, 0, -1.136752, 421.344241, 386.899398)" fill="none" stroke-linejoin="miter" d="M 0.498523 0.499112 L 400.500363 0.499112 L 400.500363 350.499189 L 0.498523 350.499189 Z M 0.498523 0.499112 " stroke="#cbcbcb" stroke-width="1" stroke-opacity="1" stroke-miterlimit="10"/><path fill="#f6f6f6" d="M 309.597656 214.992188 C 245.269531 214.992188 235.230469 77.179688 209.230469 77.179688 C 183.222656 77.179688 171.746094 159.558594 134.972656 159.558594 C 84.433594 159.558594 59.152344 10.574219 -25.863281 10.574219 C -25.972656 10.574219 -26.085938 10.574219 -26.195312 10.574219 L -26.195312 379.292969 L 413.421875 379.292969 L 413.421875 37.589844 C 398.253906 93.105469 359.292969 214.992188 309.597656 214.992188 Z M 70.859375 327.269531 C 36.292969 327.269531 8.273438 299.257812 8.273438 264.703125 C 8.273438 230.148438 36.292969 202.140625 70.859375 202.140625 C 105.425781 202.140625 133.445312 230.148438 133.445312 264.703125 C 133.445312 299.257812 105.425781 327.269531 70.859375 327.269531 Z M 70.859375 327.269531 " fill-opacity="1" fill-rule="nonzero"/><path fill="#d1d2d2" d="M -26.195312 -3.332031 L -26.195312 10.574219 C -26.082031 10.574219 -25.972656 10.574219 -25.859375 10.574219 C 59.152344 10.574219 84.425781 159.558594 134.976562 159.558594 C 171.746094 159.558594 183.226562 77.179688 209.230469 77.179688 C 235.230469 77.179688 245.269531 214.992188 309.601562 214.992188 C 359.296875 214.992188 398.253906 93.105469 413.425781 37.589844 L 413.425781 -3.332031 Z M -26.195312 -3.332031 " fill-opacity="1" fill-rule="nonzero"/><path fill="#d1d2d2" d="M 8.273438 264.707031 C 8.273438 262.65625 8.375 260.613281 8.574219 258.574219 C 8.777344 256.535156 9.074219 254.511719 9.476562 252.5 C 9.875 250.492188 10.375 248.503906 10.96875 246.542969 C 11.5625 244.582031 12.253906 242.65625 13.039062 240.765625 C 13.820312 238.871094 14.699219 237.019531 15.664062 235.214844 C 16.628906 233.40625 17.683594 231.652344 18.820312 229.945312 C 19.960938 228.242188 21.179688 226.597656 22.480469 225.015625 C 23.78125 223.429688 25.15625 221.914062 26.605469 220.464844 C 28.054688 219.015625 29.570312 217.640625 31.15625 216.34375 C 32.742188 215.042969 34.386719 213.824219 36.089844 212.683594 C 37.792969 211.546875 39.550781 210.496094 41.359375 209.527344 C 43.164062 208.5625 45.015625 207.6875 46.910156 206.902344 C 48.804688 206.121094 50.730469 205.429688 52.691406 204.835938 C 54.65625 204.238281 56.640625 203.742188 58.652344 203.34375 C 60.660156 202.941406 62.6875 202.644531 64.726562 202.441406 C 66.765625 202.242188 68.8125 202.140625 70.859375 202.140625 C 72.910156 202.140625 74.957031 202.242188 76.996094 202.441406 C 79.035156 202.644531 81.0625 202.941406 83.070312 203.34375 C 85.082031 203.742188 87.066406 204.238281 89.03125 204.835938 C 90.992188 205.429688 92.917969 206.121094 94.8125 206.902344 C 96.707031 207.6875 98.558594 208.5625 100.363281 209.527344 C 102.171875 210.496094 103.929688 211.546875 105.632812 212.683594 C 107.335938 213.824219 108.980469 215.042969 110.566406 216.34375 C 112.152344 217.640625 113.667969 219.015625 115.117188 220.464844 C 116.566406 221.914062 117.941406 223.429688 119.242188 225.015625 C 120.542969 226.597656 121.761719 228.242188 122.902344 229.945312 C 124.039062 231.652344 125.09375 233.40625 126.058594 235.214844 C 127.023438 237.019531 127.898438 238.871094 128.683594 240.765625 C 129.46875 242.65625 130.160156 244.582031 130.753906 246.542969 C 131.347656 248.503906 131.847656 250.492188 132.246094 252.5 C 132.644531 254.511719 132.945312 256.535156 133.148438 258.574219 C 133.347656 260.613281 133.449219 262.65625 133.449219 264.707031 C 133.449219 266.753906 133.347656 268.800781 133.148438 270.839844 C 132.945312 272.878906 132.644531 274.902344 132.246094 276.914062 C 131.847656 278.921875 131.347656 280.90625 130.753906 282.867188 C 130.160156 284.828125 129.46875 286.757812 128.683594 288.648438 C 127.898438 290.542969 127.023438 292.394531 126.058594 294.199219 C 125.09375 296.007812 124.039062 297.761719 122.902344 299.464844 C 121.761719 301.171875 120.542969 302.8125 119.242188 304.398438 C 117.941406 305.980469 116.566406 307.5 115.117188 308.945312 C 113.667969 310.394531 112.152344 311.769531 110.566406 313.070312 C 108.980469 314.371094 107.335938 315.589844 105.632812 316.726562 C 103.929688 317.867188 102.171875 318.917969 100.363281 319.882812 C 98.558594 320.851562 96.707031 321.726562 94.8125 322.507812 C 92.917969 323.292969 90.992188 323.984375 89.03125 324.578125 C 87.066406 325.171875 85.082031 325.671875 83.070312 326.070312 C 81.0625 326.46875 79.035156 326.769531 76.996094 326.972656 C 74.957031 327.171875 72.910156 327.273438 70.859375 327.273438 C 68.8125 327.273438 66.765625 327.171875 64.726562 326.972656 C 62.6875 326.769531 60.660156 326.46875 58.652344 326.070312 C 56.640625 325.671875 54.65625 325.171875 52.691406 324.578125 C 50.730469 323.984375 48.804688 323.292969 46.910156 322.507812 C 45.015625 321.726562 43.164062 320.851562 41.359375 319.882812 C 39.550781 318.917969 37.792969 317.867188 36.089844 316.726562 C 34.386719 315.589844 32.742188 314.371094 31.15625 313.070312 C 29.570312 311.769531 28.054688 310.394531 26.605469 308.945312 C 25.15625 307.5 23.78125 305.980469 22.480469 304.398438 C 21.179688 302.8125 19.960938 301.171875 18.820312 299.464844 C 17.683594 297.761719 16.628906 296.007812 15.664062 294.199219 C 14.699219 292.394531 13.820312 290.542969 13.039062 288.648438 C 12.253906 286.757812 11.5625 284.828125 10.96875 282.867188 C 10.375 280.90625 9.875 278.921875 9.476562 276.914062 C 9.074219 274.902344 8.777344 272.878906 8.574219 270.839844 C 8.375 268.800781 8.273438 266.753906 8.273438 264.707031 Z M 8.273438 264.707031 " fill-opacity="1" fill-rule="nonzero"/></svg>