<svg xmlns="http://www.w3.org/2000/svg" xmlns:xlink="http://www.w3.org/1999/xlink" width="500" zoomAndPan="magnify" viewBox="0 0 375 374.999991" height="500" preserveAspectRatio="xMidYMid meet" version="1.0"><rect x="-37.5" width="450" fill="#ffffff" y="-37.499999" height="449.999989" fill-opacity="1"/><rect x="-37.5" width="450" fill="#ffffff" y="-37.499999" height="449.999989" fill-opacity="1"/><rect x="-37.5" width="450" fill="#ffffff" y="-37.499999" height="449.999989" fill-opacity="1"/><path stroke-linecap="butt" transform="matrix(1.144638, 0, 0, 1.143144, -51.321004, -16.543803)" fill="none" stroke-linejoin="miter" d="M 0.498851 0.499628 L 400.49897 0.499628 L 400.49897 350.50055 L 0.498851 350.50055 Z M 0.498851 0.499628 " stroke="#cbcbcb" stroke-width="1" stroke-opacity="1" stroke-miterlimit="10"/><path fill="#f6f6f6" d="M 61.160156 156.328125 C 125.914062 156.328125 136.019531 294.917969 162.191406 294.917969 C 188.367188 294.917969 199.921875 212.074219 236.933594 212.074219 C 287.804688 212.074219 313.257812 361.898438 398.828125 361.898438 C 398.941406 361.898438 399.054688 361.898438 399.164062 361.898438 L 399.164062 -8.894531 L -43.34375 -8.894531 L -43.34375 334.730469 C -28.078125 278.902344 11.140625 156.328125 61.160156 156.328125 Z M 301.46875 43.421875 C 336.265625 43.421875 364.46875 71.589844 364.46875 106.339844 C 364.46875 141.085938 336.265625 169.253906 301.46875 169.253906 C 266.675781 169.253906 238.472656 141.085938 238.472656 106.339844 C 238.472656 71.589844 266.675781 43.421875 301.46875 43.421875 Z M 301.46875 43.421875 " fill-opacity="1" fill-rule="nonzero"/><path fill="#d1d2d2" d="M 399.164062 375.882812 L 399.164062 361.898438 C 399.050781 361.898438 398.941406 361.898438 398.828125 361.898438 C 313.253906 361.898438 287.8125 212.074219 236.933594 212.074219 C 199.921875 212.074219 188.363281 294.917969 162.1875 294.917969 C 136.015625 294.917969 125.910156 156.328125 61.15625 156.328125 C 11.136719 156.328125 -28.082031 278.902344 -43.347656 334.730469 L -43.347656 375.882812 Z M 399.164062 375.882812 " fill-opacity="1" fill-rule="nonzero"/><path fill="#d1d2d2" d="M 364.46875 106.335938 C 364.46875 108.398438 364.367188 110.453125 364.164062 112.503906 C 363.964844 114.554688 363.660156 116.589844 363.257812 118.609375 C 362.855469 120.632812 362.355469 122.628906 361.757812 124.601562 C 361.15625 126.570312 360.460938 128.511719 359.671875 130.414062 C 358.882812 132.316406 358.003906 134.179688 357.03125 135.996094 C 356.058594 137.8125 354.996094 139.578125 353.851562 141.292969 C 352.707031 143.003906 351.476562 144.65625 350.167969 146.25 C 348.859375 147.84375 347.476562 149.367188 346.015625 150.824219 C 344.558594 152.28125 343.03125 153.664062 341.4375 154.972656 C 339.839844 156.28125 338.183594 157.503906 336.46875 158.648438 C 334.753906 159.796875 332.988281 160.851562 331.167969 161.824219 C 329.347656 162.796875 327.484375 163.675781 325.578125 164.464844 C 323.671875 165.253906 321.730469 165.945312 319.757812 166.542969 C 317.78125 167.144531 315.785156 167.644531 313.757812 168.042969 C 311.734375 168.445312 309.699219 168.75 307.644531 168.949219 C 305.589844 169.152344 303.53125 169.253906 301.46875 169.253906 C 299.40625 169.253906 297.347656 169.152344 295.292969 168.949219 C 293.242188 168.75 291.203125 168.445312 289.179688 168.042969 C 287.15625 167.644531 285.15625 167.144531 283.179688 166.542969 C 281.207031 165.945312 279.265625 165.253906 277.359375 164.464844 C 275.453125 163.675781 273.589844 162.796875 271.769531 161.824219 C 269.953125 160.851562 268.183594 159.796875 266.46875 158.648438 C 264.753906 157.503906 263.097656 156.28125 261.503906 154.972656 C 259.90625 153.664062 258.378906 152.28125 256.921875 150.824219 C 255.460938 149.367188 254.078125 147.84375 252.769531 146.25 C 251.460938 144.65625 250.234375 143.003906 249.085938 141.292969 C 247.941406 139.578125 246.882812 137.8125 245.910156 135.996094 C 244.9375 134.179688 244.054688 132.316406 243.265625 130.414062 C 242.476562 128.511719 241.78125 126.570312 241.183594 124.601562 C 240.582031 122.628906 240.082031 120.632812 239.679688 118.609375 C 239.277344 116.589844 238.976562 114.554688 238.773438 112.503906 C 238.570312 110.453125 238.46875 108.398438 238.46875 106.335938 C 238.46875 104.277344 238.570312 102.21875 238.773438 100.167969 C 238.976562 98.117188 239.277344 96.082031 239.679688 94.0625 C 240.082031 92.039062 240.582031 90.042969 241.183594 88.070312 C 241.78125 86.101562 242.476562 84.164062 243.265625 82.257812 C 244.054688 80.355469 244.9375 78.496094 245.910156 76.675781 C 246.882812 74.859375 247.941406 73.09375 249.085938 71.382812 C 250.234375 69.667969 251.460938 68.015625 252.769531 66.421875 C 254.078125 64.828125 255.460938 63.304688 256.921875 61.847656 C 258.378906 60.390625 259.90625 59.007812 261.503906 57.699219 C 263.097656 56.394531 264.753906 55.167969 266.46875 54.023438 C 268.183594 52.878906 269.953125 51.820312 271.769531 50.847656 C 273.589844 49.875 275.453125 48.996094 277.359375 48.207031 C 279.265625 47.417969 281.207031 46.726562 283.179688 46.128906 C 285.15625 45.53125 287.15625 45.03125 289.179688 44.628906 C 291.203125 44.226562 293.242188 43.921875 295.292969 43.722656 C 297.347656 43.519531 299.40625 43.417969 301.46875 43.417969 C 303.53125 43.417969 305.589844 43.519531 307.644531 43.722656 C 309.699219 43.921875 311.734375 44.226562 313.757812 44.628906 C 315.785156 45.03125 317.78125 45.53125 319.757812 46.128906 C 321.730469 46.726562 323.671875 47.417969 325.578125 48.207031 C 327.484375 48.996094 329.347656 49.875 331.167969 50.847656 C 332.988281 51.820312 334.753906 52.878906 336.46875 54.023438 C 338.183594 55.167969 339.839844 56.394531 341.4375 57.699219 C 343.03125 59.007812 344.558594 60.390625 346.015625 61.847656 C 347.476562 63.304688 348.859375 64.828125 350.167969 66.421875 C 351.476562 68.015625 352.707031 69.667969 353.851562 71.382812 C 354.996094 73.09375 356.058594 74.859375 357.03125 76.675781 C 358.003906 78.496094 358.882812 80.355469 359.671875 82.257812 C 360.460938 84.164062 361.15625 86.101562 361.757812 88.070312 C 362.355469 90.042969 362.855469 92.039062 363.257812 94.0625 C 363.660156 96.082031 363.964844 98.117188 364.164062 100.167969 C 364.367188 102.21875 364.46875 104.277344 364.46875 106.335938 Z M 364.46875 106.335938 " fill-opacity="1" fill-rule="nonzero"/></svg>