<svg xmlns="http://www.w3.org/2000/svg" xmlns:xlink="http://www.w3.org/1999/xlink" width="500" zoomAndPan="magnify" viewBox="0 0 375 374.999991" height="500" preserveAspectRatio="xMidYMid meet" version="1.0"><rect x="-37.5" width="450" fill="#ffffff" y="-37.499999" height="449.999989" fill-opacity="1"/><rect x="-37.5" width="450" fill="#ffffff" y="-37.499999" height="449.999989" fill-opacity="1"/><path fill="#ffffff" d="M 5.988281 5.984375 L 5.988281 369.015625 L 369.011719 369.015625 L 369.011719 5.984375 Z M 5.988281 5.984375 " fill-opacity="1" fill-rule="nonzero"/><path fill="#d1d2d2" d="M 22.058594 22.914062 L 278.664062 22.246094 L 352.078125 22.054688 L 352.941406 352.078125 L 299.808594 352.214844 L 22.917969 352.9375 Z M 22.058594 22.914062 " fill-opacity="1" fill-rule="nonzero"/><path fill="#d1d2d2" d="M 11.945312 363.96875 L 363.972656 363.050781 L 363.054688 11.03125 L 11.03125 11.945312 L 11.945312 363.96875 M 0.972656 375 L 0.945312 364 L 0.0273438 11.976562 L 0 0.972656 L 11.003906 0.945312 L 363.027344 0.0273438 L 374.027344 0 L 374.054688 11 L 374.96875 363.027344 L 375 374.023438 L 364 374.054688 L 11.976562 374.96875 Z M 0.972656 375 " fill-opacity="1" fill-rule="nonzero"/><path fill="#717273" d="M 272.359375 299.9375 C 255.996094 261.164062 242.203125 227.558594 242.203125 227.558594 C 242.203125 227.558594 224.984375 227.558594 212.917969 227.558594 C 200.847656 227.558594 187.917969 247.382812 137.941406 247.382812 C 89.894531 247.382812 63.445312 225.046875 61.441406 189.632812 C 61.394531 189.632812 61.300781 189.632812 61.253906 189.632812 C 61.253906 188.902344 61.328125 188.210938 61.351562 187.496094 C 61.328125 186.757812 61.253906 186.074219 61.253906 185.335938 C 61.300781 185.335938 61.394531 185.335938 61.441406 185.335938 C 63.445312 149.925781 89.894531 127.589844 137.941406 127.589844 C 187.917969 127.589844 200.851562 147.414062 212.917969 147.414062 C 224.980469 147.414062 242.203125 147.414062 242.203125 147.414062 C 242.203125 147.414062 255.996094 113.808594 272.359375 75.027344 C 288.753906 36.242188 311.996094 22.476562 324.9375 22.476562 C 337.863281 22.476562 351.640625 22.476562 351.640625 22.476562 L 351.640625 352.5 C 351.640625 352.5 337.863281 352.5 324.9375 352.5 C 312 352.507812 288.753906 338.695312 272.359375 299.9375 Z M 272.359375 299.9375 " fill-opacity="1" fill-rule="nonzero"/></svg>