<svg xmlns="http://www.w3.org/2000/svg" xmlns:xlink="http://www.w3.org/1999/xlink" width="500" zoomAndPan="magnify" viewBox="0 0 375 374.999991" height="500" preserveAspectRatio="xMidYMid meet" version="1.0"><rect x="-37.5" width="450" fill="#ffffff" y="-37.499999" height="449.999989" fill-opacity="1"/><rect x="-37.5" width="450" fill="#ffffff" y="-37.499999" height="449.999989" fill-opacity="1"/><rect x="-37.5" width="450" fill="#ffffff" y="-37.499999" height="449.999989" fill-opacity="1"/><path stroke-linecap="butt" transform="matrix(1.137153, 0, 0, -1.136752, -34.213774, 386.899398)" fill="none" stroke-linejoin="miter" d="M 0.500586 0.499112 L 400.498906 0.499112 L 400.498906 350.499189 L 0.500586 350.499189 Z M 0.500586 0.499112 " stroke="#cbcbcb" stroke-width="1" stroke-opacity="1" stroke-miterlimit="10"/><path fill="#f6f6f6" d="M 77.53125 214.992188 C 141.863281 214.992188 151.902344 77.179688 177.902344 77.179688 C 203.90625 77.179688 215.386719 159.558594 252.15625 159.558594 C 302.695312 159.558594 327.980469 10.574219 412.992188 10.574219 C 413.105469 10.574219 413.214844 10.574219 413.328125 10.574219 L 413.328125 379.292969 L -26.289062 379.292969 L -26.289062 37.589844 C -11.121094 93.105469 27.839844 214.992188 77.53125 214.992188 Z M 316.269531 327.269531 C 350.835938 327.269531 378.859375 299.257812 378.859375 264.703125 C 378.859375 230.148438 350.835938 202.140625 316.269531 202.140625 C 281.703125 202.140625 253.6875 230.148438 253.6875 264.703125 C 253.683594 299.257812 281.703125 327.269531 316.269531 327.269531 Z M 316.269531 327.269531 " fill-opacity="1" fill-rule="nonzero"/><path fill="#d1d2d2" d="M 413.324219 -3.332031 L 413.324219 10.574219 C 413.210938 10.574219 413.101562 10.574219 412.992188 10.574219 C 327.976562 10.574219 302.703125 159.558594 252.15625 159.558594 C 215.382812 159.558594 203.902344 77.179688 177.898438 77.179688 C 151.898438 77.179688 141.859375 214.992188 77.527344 214.992188 C 27.835938 214.992188 -11.125 93.105469 -26.292969 37.589844 L -26.292969 -3.332031 Z M 413.324219 -3.332031 " fill-opacity="1" fill-rule="nonzero"/><path fill="#d1d2d2" d="M 378.855469 264.707031 C 378.855469 262.65625 378.757812 260.613281 378.554688 258.574219 C 378.355469 256.535156 378.054688 254.511719 377.65625 252.5 C 377.253906 250.492188 376.757812 248.503906 376.160156 246.542969 C 375.566406 244.582031 374.878906 242.65625 374.09375 240.765625 C 373.308594 238.871094 372.433594 237.019531 371.46875 235.214844 C 370.5 233.40625 369.449219 231.652344 368.308594 229.945312 C 367.171875 228.242188 365.949219 226.597656 364.648438 225.015625 C 363.351562 223.429688 361.976562 221.914062 360.527344 220.464844 C 359.074219 219.015625 357.558594 217.640625 355.972656 216.34375 C 354.390625 215.042969 352.746094 213.824219 351.042969 212.683594 C 349.335938 211.546875 347.582031 210.496094 345.773438 209.527344 C 343.964844 208.5625 342.113281 207.6875 340.21875 206.902344 C 338.328125 206.121094 336.398438 205.429688 334.4375 204.835938 C 332.476562 204.238281 330.488281 203.742188 328.480469 203.34375 C 326.46875 202.941406 324.445312 202.644531 322.402344 202.441406 C 320.363281 202.242188 318.320312 202.140625 316.269531 202.140625 C 314.21875 202.140625 312.175781 202.242188 310.132812 202.441406 C 308.09375 202.644531 306.070312 202.941406 304.058594 203.34375 C 302.046875 203.742188 300.0625 204.238281 298.101562 204.835938 C 296.140625 205.429688 294.210938 206.121094 292.316406 206.902344 C 290.425781 207.6875 288.574219 208.5625 286.765625 209.527344 C 284.957031 210.496094 283.203125 211.546875 281.496094 212.683594 C 279.792969 213.824219 278.148438 215.042969 276.5625 216.34375 C 274.980469 217.640625 273.460938 219.015625 272.011719 220.464844 C 270.5625 221.914062 269.1875 223.429688 267.886719 225.015625 C 266.589844 226.597656 265.367188 228.242188 264.230469 229.945312 C 263.089844 231.652344 262.039062 233.40625 261.070312 235.214844 C 260.105469 237.019531 259.230469 238.871094 258.445312 240.765625 C 257.660156 242.65625 256.972656 244.582031 256.375 246.542969 C 255.78125 248.503906 255.285156 250.492188 254.882812 252.5 C 254.484375 254.511719 254.183594 256.535156 253.984375 258.574219 C 253.78125 260.613281 253.679688 262.65625 253.679688 264.707031 C 253.679688 266.753906 253.78125 268.800781 253.984375 270.839844 C 254.183594 272.878906 254.484375 274.902344 254.882812 276.914062 C 255.285156 278.921875 255.78125 280.90625 256.375 282.867188 C 256.972656 284.828125 257.660156 286.757812 258.445312 288.648438 C 259.230469 290.542969 260.105469 292.394531 261.070312 294.199219 C 262.039062 296.007812 263.089844 297.761719 264.230469 299.464844 C 265.367188 301.171875 266.589844 302.8125 267.886719 304.398438 C 269.1875 305.980469 270.5625 307.5 272.011719 308.945312 C 273.460938 310.394531 274.980469 311.769531 276.5625 313.070312 C 278.148438 314.371094 279.792969 315.589844 281.496094 316.726562 C 283.203125 317.867188 284.957031 318.917969 286.765625 319.882812 C 288.574219 320.851562 290.425781 321.726562 292.316406 322.507812 C 294.210938 323.292969 296.140625 323.984375 298.101562 324.578125 C 300.0625 325.171875 302.046875 325.671875 304.058594 326.070312 C 306.070312 326.46875 308.09375 326.769531 310.132812 326.972656 C 312.175781 327.171875 314.21875 327.273438 316.269531 327.273438 C 318.320312 327.273438 320.363281 327.171875 322.402344 326.972656 C 324.445312 326.769531 326.46875 326.46875 328.480469 326.070312 C 330.488281 325.671875 332.476562 325.171875 334.4375 324.578125 C 336.398438 323.984375 338.328125 323.292969 340.21875 322.507812 C 342.113281 321.726562 343.964844 320.851562 345.773438 319.882812 C 347.582031 318.917969 349.335938 317.867188 351.042969 316.726562 C 352.746094 315.589844 354.390625 314.371094 355.972656 313.070312 C 357.558594 311.769531 359.074219 310.394531 360.527344 308.945312 C 361.976562 307.5 363.351562 305.980469 364.648438 304.398438 C 365.949219 302.8125 367.171875 301.171875 368.308594 299.464844 C 369.449219 297.761719 370.5 296.007812 371.46875 294.199219 C 372.433594 292.394531 373.308594 290.542969 374.09375 288.648438 C 374.878906 286.757812 375.566406 284.828125 376.160156 282.867188 C 376.757812 280.90625 377.253906 278.921875 377.65625 276.914062 C 378.054688 274.902344 378.355469 272.878906 378.554688 270.839844 C 378.757812 268.800781 378.855469 266.753906 378.855469 264.707031 Z M 378.855469 264.707031 " fill-opacity="1" fill-rule="nonzero"/></svg>