<svg xmlns="http://www.w3.org/2000/svg" xmlns:xlink="http://www.w3.org/1999/xlink" width="150" zoomAndPan="magnify" viewBox="0 0 112.5 112.499997" height="150" preserveAspectRatio="xMidYMid meet" version="1.0"><defs><clipPath id="1d9290f43e"><path d="M 34 68 L 63 68 L 63 80 L 34 80 Z M 34 68 " clip-rule="nonzero"/></clipPath><clipPath id="e5c3ebab49"><path d="M 56 0 L 111.964844 55.964844 L 56 111.933594 L 0.0351562 55.964844 Z M 56 0 " clip-rule="nonzero"/></clipPath><clipPath id="5168f7a208"><path d="M 56 0 L 111.964844 55.964844 L 56 111.933594 L 0.0351562 55.964844 Z M 56 0 " clip-rule="nonzero"/></clipPath><clipPath id="0b12b83216"><path d="M 56 0 L 111.964844 55.964844 L 56 111.933594 L 0.0351562 55.964844 Z M 56 0 " clip-rule="nonzero"/></clipPath><clipPath id="237e5c4ea6"><path d="M 34 75 L 62 75 L 62 80 L 34 80 Z M 34 75 " clip-rule="nonzero"/></clipPath><clipPath id="29fbc0b72f"><path d="M 56 0 L 111.964844 55.964844 L 56 111.933594 L 0.0351562 55.964844 Z M 56 0 " clip-rule="nonzero"/></clipPath><clipPath id="60dcc226db"><path d="M 56 0 L 111.964844 55.964844 L 56 111.933594 L 0.0351562 55.964844 Z M 56 0 " clip-rule="nonzero"/></clipPath><clipPath id="c01844f9e6"><path d="M 56 0 L 111.964844 55.964844 L 56 111.933594 L 0.0351562 55.964844 Z M 56 0 " clip-rule="nonzero"/></clipPath><clipPath id="b66ebf26ca"><path d="M 34 31 L 63 31 L 63 44 L 34 44 Z M 34 31 " clip-rule="nonzero"/></clipPath><clipPath id="b19015db8e"><path d="M 56 0 L 111.964844 55.964844 L 56 111.933594 L 0.0351562 55.964844 Z M 56 0 " clip-rule="nonzero"/></clipPath><clipPath id="9b1a410886"><path d="M 56 0 L 111.964844 55.964844 L 56 111.933594 L 0.0351562 55.964844 Z M 56 0 " clip-rule="nonzero"/></clipPath><clipPath id="c95f33e0f3"><path d="M 56 0 L 111.964844 55.964844 L 56 111.933594 L 0.0351562 55.964844 Z M 56 0 " clip-rule="nonzero"/></clipPath><clipPath id="de2cb6074d"><path d="M 34 34 L 42 34 L 42 42 L 34 42 Z M 34 34 " clip-rule="nonzero"/></clipPath><clipPath id="da83693220"><path d="M 56 0 L 111.964844 55.964844 L 56 111.933594 L 0.0351562 55.964844 Z M 56 0 " clip-rule="nonzero"/></clipPath><clipPath id="6166c6eb7b"><path d="M 56 0 L 111.964844 55.964844 L 56 111.933594 L 0.0351562 55.964844 Z M 56 0 " clip-rule="nonzero"/></clipPath><clipPath id="12a8ce94ac"><path d="M 56 0 L 111.964844 55.964844 L 56 111.933594 L 0.0351562 55.964844 Z M 56 0 " clip-rule="nonzero"/></clipPath><clipPath id="4d2cce6889"><path d="M 34 33 L 59 33 L 59 44 L 34 44 Z M 34 33 " clip-rule="nonzero"/></clipPath><clipPath id="955d3aaf07"><path d="M 56 0 L 111.964844 55.964844 L 56 111.933594 L 0.0351562 55.964844 Z M 56 0 " clip-rule="nonzero"/></clipPath><clipPath id="855ef2a265"><path d="M 56 0 L 111.964844 55.964844 L 56 111.933594 L 0.0351562 55.964844 Z M 56 0 " clip-rule="nonzero"/></clipPath><clipPath id="fbdd97a3ec"><path d="M 56 0 L 111.964844 55.964844 L 56 111.933594 L 0.0351562 55.964844 Z M 56 0 " clip-rule="nonzero"/></clipPath><clipPath id="7a07ea449f"><path d="M 0 44 L 39 44 L 39 68 L 0 68 Z M 0 44 " clip-rule="nonzero"/></clipPath><clipPath id="5ec3e79878"><path d="M 56 0 L 111.964844 55.964844 L 56 111.933594 L 0.0351562 55.964844 Z M 56 0 " clip-rule="nonzero"/></clipPath><clipPath id="a0c918e474"><path d="M 56 0 L 111.964844 55.964844 L 56 111.933594 L 0.0351562 55.964844 Z M 56 0 " clip-rule="nonzero"/></clipPath><clipPath id="0f9e347bc1"><path d="M 56 0 L 111.964844 55.964844 L 56 111.933594 L 0.0351562 55.964844 Z M 56 0 " clip-rule="nonzero"/></clipPath><clipPath id="824e9752f0"><path d="M 20.851562 35.148438 L 41.667969 55.964844 L 20.847656 76.785156 L 0.03125 55.96875 Z M 20.851562 35.148438 " clip-rule="nonzero"/></clipPath><clipPath id="8c89c843da"><path d="M 6 47 L 38 47 L 38 65 L 6 65 Z M 6 47 " clip-rule="nonzero"/></clipPath><clipPath id="28a7e9023c"><path d="M 56 0 L 111.964844 55.964844 L 56 111.933594 L 0.0351562 55.964844 Z M 56 0 " clip-rule="nonzero"/></clipPath><clipPath id="41ca151ce2"><path d="M 56 0 L 111.964844 55.964844 L 56 111.933594 L 0.0351562 55.964844 Z M 56 0 " clip-rule="nonzero"/></clipPath><clipPath id="8c0f5467e2"><path d="M 56 0 L 111.964844 55.964844 L 56 111.933594 L 0.0351562 55.964844 Z M 56 0 " clip-rule="nonzero"/></clipPath><clipPath id="0e74822db7"><path d="M 16 51 L 39 51 L 39 61 L 16 61 Z M 16 51 " clip-rule="nonzero"/></clipPath><clipPath id="94fcf8966f"><path d="M 56 0 L 111.964844 55.964844 L 56 111.933594 L 0.0351562 55.964844 Z M 56 0 " clip-rule="nonzero"/></clipPath><clipPath id="17f7aa43c0"><path d="M 56 0 L 111.964844 55.964844 L 56 111.933594 L 0.0351562 55.964844 Z M 56 0 " clip-rule="nonzero"/></clipPath><clipPath id="6b8509671c"><path d="M 56 0 L 111.964844 55.964844 L 56 111.933594 L 0.0351562 55.964844 Z M 56 0 " clip-rule="nonzero"/></clipPath><clipPath id="a3e4409fe6"><path d="M 36 35 L 111 35 L 111 77 L 36 77 Z M 36 35 " clip-rule="nonzero"/></clipPath><clipPath id="23ad1ba30f"><path d="M 56 0 L 111.964844 55.964844 L 56 111.933594 L 0.0351562 55.964844 Z M 56 0 " clip-rule="nonzero"/></clipPath><clipPath id="fbf5abd2ac"><path d="M 56 0 L 111.964844 55.964844 L 56 111.933594 L 0.0351562 55.964844 Z M 56 0 " clip-rule="nonzero"/></clipPath><clipPath id="e15375e58b"><path d="M 56 0 L 111.964844 55.964844 L 56 111.933594 L 0.0351562 55.964844 Z M 56 0 " clip-rule="nonzero"/></clipPath><clipPath id="b2531699ad"><path d="M 71.1875 15.1875 L 111.960938 55.964844 L 71.183594 96.742188 L 30.40625 55.964844 Z M 71.1875 15.1875 " clip-rule="nonzero"/></clipPath><clipPath id="caedbeedc5"><path d="M 95 42 L 111 42 L 111 70 L 95 70 Z M 95 42 " clip-rule="nonzero"/></clipPath><clipPath id="a11efcee47"><path d="M 56 0 L 111.964844 55.964844 L 56 111.933594 L 0.0351562 55.964844 Z M 56 0 " clip-rule="nonzero"/></clipPath><clipPath id="a3b439f6dc"><path d="M 56 0 L 111.964844 55.964844 L 56 111.933594 L 0.0351562 55.964844 Z M 56 0 " clip-rule="nonzero"/></clipPath><clipPath id="e03fd64a17"><path d="M 56 0 L 111.964844 55.964844 L 56 111.933594 L 0.0351562 55.964844 Z M 56 0 " clip-rule="nonzero"/></clipPath><clipPath id="62ccc6679b"><path d="M 97.121094 41.121094 L 111.960938 55.964844 L 97.117188 70.808594 L 82.277344 55.964844 Z M 97.121094 41.121094 " clip-rule="nonzero"/></clipPath><clipPath id="0429b90c2b"><path d="M 36 45 L 44 45 L 44 67 L 36 67 Z M 36 45 " clip-rule="nonzero"/></clipPath><clipPath id="a33d13fb6f"><path d="M 56 0 L 111.964844 55.964844 L 56 111.933594 L 0.0351562 55.964844 Z M 56 0 " clip-rule="nonzero"/></clipPath><clipPath id="3f3cbee109"><path d="M 56 0 L 111.964844 55.964844 L 56 111.933594 L 0.0351562 55.964844 Z M 56 0 " clip-rule="nonzero"/></clipPath><clipPath id="eef594d90c"><path d="M 56 0 L 111.964844 55.964844 L 56 111.933594 L 0.0351562 55.964844 Z M 56 0 " clip-rule="nonzero"/></clipPath><clipPath id="86a9fefdaa"><path d="M 40 55 L 111 55 L 111 77 L 40 77 Z M 40 55 " clip-rule="nonzero"/></clipPath><clipPath id="1588184767"><path d="M 56 0 L 111.964844 55.964844 L 56 111.933594 L 0.0351562 55.964844 Z M 56 0 " clip-rule="nonzero"/></clipPath><clipPath id="336db17f42"><path d="M 56 0 L 111.964844 55.964844 L 56 111.933594 L 0.0351562 55.964844 Z M 56 0 " clip-rule="nonzero"/></clipPath><clipPath id="fb982922a7"><path d="M 56 0 L 111.964844 55.964844 L 56 111.933594 L 0.0351562 55.964844 Z M 56 0 " clip-rule="nonzero"/></clipPath><clipPath id="3754b2856d"><path d="M 80.828125 25.507812 L 111.621094 56.304688 L 71.183594 96.742188 L 40.386719 65.949219 Z M 80.828125 25.507812 " clip-rule="nonzero"/></clipPath><clipPath id="f3be615223"><path d="M 41 54 L 111 54 L 111 77 L 41 77 Z M 41 54 " clip-rule="nonzero"/></clipPath><clipPath id="83e75921e0"><path d="M 56 0 L 111.964844 55.964844 L 56 111.933594 L 0.0351562 55.964844 Z M 56 0 " clip-rule="nonzero"/></clipPath><clipPath id="79fd80f705"><path d="M 56 0 L 111.964844 55.964844 L 56 111.933594 L 0.0351562 55.964844 Z M 56 0 " clip-rule="nonzero"/></clipPath><clipPath id="3b458ea704"><path d="M 56 0 L 111.964844 55.964844 L 56 111.933594 L 0.0351562 55.964844 Z M 56 0 " clip-rule="nonzero"/></clipPath><clipPath id="11f48b96a3"><path d="M 95 54 L 111 54 L 111 70 L 95 70 Z M 95 54 " clip-rule="nonzero"/></clipPath><clipPath id="e9070b0a95"><path d="M 56 0 L 111.964844 55.964844 L 56 111.933594 L 0.0351562 55.964844 Z M 56 0 " clip-rule="nonzero"/></clipPath><clipPath id="378ffc3b7b"><path d="M 56 0 L 111.964844 55.964844 L 56 111.933594 L 0.0351562 55.964844 Z M 56 0 " clip-rule="nonzero"/></clipPath><clipPath id="844bfc8085"><path d="M 56 0 L 111.964844 55.964844 L 56 111.933594 L 0.0351562 55.964844 Z M 56 0 " clip-rule="nonzero"/></clipPath><clipPath id="0c5d09f97c"><path d="M 109.664062 54.175781 L 111.707031 56.21875 L 97.117188 70.808594 L 95.074219 68.765625 Z M 109.664062 54.175781 " clip-rule="nonzero"/></clipPath><clipPath id="2963345d89"><path d="M 36 56 L 43 56 L 43 67 L 36 67 Z M 36 56 " clip-rule="nonzero"/></clipPath><clipPath id="93b127f269"><path d="M 56 0 L 111.964844 55.964844 L 56 111.933594 L 0.0351562 55.964844 Z M 56 0 " clip-rule="nonzero"/></clipPath><clipPath id="79a3e6d950"><path d="M 56 0 L 111.964844 55.964844 L 56 111.933594 L 0.0351562 55.964844 Z M 56 0 " clip-rule="nonzero"/></clipPath><clipPath id="5d6b1454ae"><path d="M 56 0 L 111.964844 55.964844 L 56 111.933594 L 0.0351562 55.964844 Z M 56 0 " clip-rule="nonzero"/></clipPath><clipPath id="9da18ebd7e"><path d="M 41 35 L 77 35 L 77 54 L 41 54 Z M 41 35 " clip-rule="nonzero"/></clipPath><clipPath id="94399e7ec0"><path d="M 56 0 L 111.964844 55.964844 L 56 111.933594 L 0.0351562 55.964844 Z M 56 0 " clip-rule="nonzero"/></clipPath><clipPath id="72b589080f"><path d="M 56 0 L 111.964844 55.964844 L 56 111.933594 L 0.0351562 55.964844 Z M 56 0 " clip-rule="nonzero"/></clipPath><clipPath id="6df6d2c1eb"><path d="M 56 0 L 111.964844 55.964844 L 56 111.933594 L 0.0351562 55.964844 Z M 56 0 " clip-rule="nonzero"/></clipPath><clipPath id="1d4b1a8676"><path d="M 36 45 L 43 45 L 43 56 L 36 56 Z M 36 45 " clip-rule="nonzero"/></clipPath><clipPath id="9575f6fc5a"><path d="M 56 0 L 111.964844 55.964844 L 56 111.933594 L 0.0351562 55.964844 Z M 56 0 " clip-rule="nonzero"/></clipPath><clipPath id="1db4097b0f"><path d="M 56 0 L 111.964844 55.964844 L 56 111.933594 L 0.0351562 55.964844 Z M 56 0 " clip-rule="nonzero"/></clipPath><clipPath id="d2eb679844"><path d="M 56 0 L 111.964844 55.964844 L 56 111.933594 L 0.0351562 55.964844 Z M 56 0 " clip-rule="nonzero"/></clipPath><clipPath id="d1df666f45"><path d="M 33 53 L 62 53 L 62 59 L 33 59 Z M 33 53 " clip-rule="nonzero"/></clipPath><clipPath id="94c00d441d"><path d="M 56 0 L 111.964844 55.964844 L 56 111.933594 L 0.0351562 55.964844 Z M 56 0 " clip-rule="nonzero"/></clipPath><clipPath id="e6fc87192d"><path d="M 56 0 L 111.964844 55.964844 L 56 111.933594 L 0.0351562 55.964844 Z M 56 0 " clip-rule="nonzero"/></clipPath><clipPath id="9af70ea993"><path d="M 56 0 L 111.964844 55.964844 L 56 111.933594 L 0.0351562 55.964844 Z M 56 0 " clip-rule="nonzero"/></clipPath><clipPath id="a051df6cad"><path d="M 36 55 L 61 55 L 61 57 L 36 57 Z M 36 55 " clip-rule="nonzero"/></clipPath><clipPath id="78d591beb3"><path d="M 56 0 L 111.964844 55.964844 L 56 111.933594 L 0.0351562 55.964844 Z M 56 0 " clip-rule="nonzero"/></clipPath><clipPath id="d9edcb6f0d"><path d="M 56 0 L 111.964844 55.964844 L 56 111.933594 L 0.0351562 55.964844 Z M 56 0 " clip-rule="nonzero"/></clipPath><clipPath id="d0c9f987e8"><path d="M 56 0 L 111.964844 55.964844 L 56 111.933594 L 0.0351562 55.964844 Z M 56 0 " clip-rule="nonzero"/></clipPath><clipPath id="e66afb828f"><path d="M 71 47 L 89 47 L 89 65 L 71 65 Z M 71 47 " clip-rule="nonzero"/></clipPath><clipPath id="a7d8f31487"><path d="M 56 0 L 111.964844 55.964844 L 56 111.933594 L 0.0351562 55.964844 Z M 56 0 " clip-rule="nonzero"/></clipPath><clipPath id="0d31a7cdf5"><path d="M 56 0 L 111.964844 55.964844 L 56 111.933594 L 0.0351562 55.964844 Z M 56 0 " clip-rule="nonzero"/></clipPath><clipPath id="cc2a130691"><path d="M 56 0 L 111.964844 55.964844 L 56 111.933594 L 0.0351562 55.964844 Z M 56 0 " clip-rule="nonzero"/></clipPath><clipPath id="06c586e59f"><path d="M 73 50 L 87 50 L 87 63 L 73 63 Z M 73 50 " clip-rule="nonzero"/></clipPath><clipPath id="a0c9e28e8e"><path d="M 56 0 L 111.964844 55.964844 L 56 111.933594 L 0.0351562 55.964844 Z M 56 0 " clip-rule="nonzero"/></clipPath><clipPath id="6c17bb5102"><path d="M 56 0 L 111.964844 55.964844 L 56 111.933594 L 0.0351562 55.964844 Z M 56 0 " clip-rule="nonzero"/></clipPath><clipPath id="1d49421cec"><path d="M 56 0 L 111.964844 55.964844 L 56 111.933594 L 0.0351562 55.964844 Z M 56 0 " clip-rule="nonzero"/></clipPath><clipPath id="f22551c43a"><path d="M 75 51 L 85 51 L 85 63 L 75 63 Z M 75 51 " clip-rule="nonzero"/></clipPath><clipPath id="2ad44fed26"><path d="M 56 0 L 111.964844 55.964844 L 56 111.933594 L 0.0351562 55.964844 Z M 56 0 " clip-rule="nonzero"/></clipPath><clipPath id="3069fdcb78"><path d="M 56 0 L 111.964844 55.964844 L 56 111.933594 L 0.0351562 55.964844 Z M 56 0 " clip-rule="nonzero"/></clipPath><clipPath id="4f0b6ac8bd"><path d="M 56 0 L 111.964844 55.964844 L 56 111.933594 L 0.0351562 55.964844 Z M 56 0 " clip-rule="nonzero"/></clipPath><clipPath id="08bbf71ab1"><path d="M 73 51 L 87 51 L 87 63 L 73 63 Z M 73 51 " clip-rule="nonzero"/></clipPath><clipPath id="64f856761c"><path d="M 56 0 L 111.964844 55.964844 L 56 111.933594 L 0.0351562 55.964844 Z M 56 0 " clip-rule="nonzero"/></clipPath><clipPath id="ef2a86955b"><path d="M 56 0 L 111.964844 55.964844 L 56 111.933594 L 0.0351562 55.964844 Z M 56 0 " clip-rule="nonzero"/></clipPath><clipPath id="ee1ce1af8e"><path d="M 56 0 L 111.964844 55.964844 L 56 111.933594 L 0.0351562 55.964844 Z M 56 0 " clip-rule="nonzero"/></clipPath></defs><g clip-path="url(#1d9290f43e)"><g clip-path="url(#e5c3ebab49)"><g clip-path="url(#5168f7a208)"><g clip-path="url(#0b12b83216)"><path fill="#f15a24" d="M 46.226562 79.890625 C 41.570312 79.890625 37.363281 79.207031 34.363281 78.105469 L 43.25 68.257812 C 44.214844 68.195312 45.210938 68.160156 46.226562 68.160156 C 55.351562 68.160156 62.746094 70.789062 62.746094 74.027344 C 62.746094 77.265625 55.351562 79.890625 46.226562 79.890625 " fill-opacity="1" fill-rule="nonzero"/></g></g></g></g><g clip-path="url(#237e5c4ea6)"><g clip-path="url(#29fbc0b72f)"><g clip-path="url(#60dcc226db)"><g clip-path="url(#c01844f9e6)"><path fill="#e05421" d="M 34.363281 78.105469 L 34.964844 77.441406 C 37.699219 78.152344 41.082031 78.578125 44.738281 78.578125 C 51.222656 78.578125 56.832031 77.25 59.539062 75.320312 C 60.335938 75.496094 61.148438 75.660156 61.96875 75.808594 C 61.914062 75.867188 61.859375 75.925781 61.800781 75.988281 C 59.527344 78.261719 53.414062 79.890625 46.226562 79.890625 C 41.570312 79.890625 37.363281 79.207031 34.363281 78.105469 " fill-opacity="1" fill-rule="nonzero"/></g></g></g></g><g clip-path="url(#b66ebf26ca)"><g clip-path="url(#b19015db8e)"><g clip-path="url(#9b1a410886)"><g clip-path="url(#c95f33e0f3)"><path fill="#f15a24" d="M 46.226562 31.941406 C 41.570312 31.941406 37.363281 32.628906 34.363281 33.726562 L 43.25 43.578125 C 44.214844 43.640625 45.210938 43.671875 46.226562 43.671875 C 55.351562 43.671875 62.746094 41.046875 62.746094 37.808594 C 62.746094 34.570312 55.351562 31.941406 46.226562 31.941406 " fill-opacity="1" fill-rule="nonzero"/></g></g></g></g><g clip-path="url(#de2cb6074d)"><g clip-path="url(#da83693220)"><g clip-path="url(#6166c6eb7b)"><g clip-path="url(#12a8ce94ac)"><path fill="#ededed" d="M 41.21875 41.328125 L 34.863281 34.28125 L 41.21875 41.328125 " fill-opacity="1" fill-rule="nonzero"/></g></g></g></g><g clip-path="url(#4d2cce6889)"><g clip-path="url(#955d3aaf07)"><g clip-path="url(#855ef2a265)"><g clip-path="url(#fbdd97a3ec)"><path fill="#e05421" d="M 43.226562 43.550781 L 41.21875 41.328125 L 34.863281 34.28125 C 37.445312 33.6875 40.519531 33.339844 43.824219 33.339844 C 50.492188 33.339844 56.234375 34.746094 58.847656 36.761719 C 52.601562 38.230469 47.21875 40.589844 43.226562 43.550781 " fill-opacity="1" fill-rule="nonzero"/></g></g></g></g><g clip-path="url(#7a07ea449f)"><g clip-path="url(#5ec3e79878)"><g clip-path="url(#a0c918e474)"><g clip-path="url(#0f9e347bc1)"><g clip-path="url(#824e9752f0)"><path fill="#f56831" d="M 38.191406 58.785156 L 38.183594 58.78125 C 38.703125 57.890625 38.984375 56.949219 38.988281 55.96875 C 38.992188 54.980469 38.714844 54.027344 38.1875 53.132812 L 38.191406 53.132812 L 38.179688 53.117188 C 38.171875 53.101562 38.164062 53.089844 38.15625 53.078125 C 34.722656 47.28125 27.300781 44.597656 20.851562 44.894531 C 20.605469 44.90625 20.519531 45.140625 20.726562 45.238281 C 21.359375 45.535156 21.945312 45.839844 22.5 46.160156 C 22.636719 46.238281 22.550781 46.402344 22.375 46.394531 C 21.808594 46.367188 21.234375 46.351562 20.65625 46.351562 C 11.417969 46.355469 1.847656 54.355469 0.242188 55.761719 C 0.109375 55.875 0.109375 56.0625 0.242188 56.175781 C 1.84375 57.578125 11.414062 65.582031 20.65625 65.585938 C 21.222656 65.585938 21.785156 65.570312 22.34375 65.542969 C 22.515625 65.535156 22.605469 65.699219 22.464844 65.777344 C 21.921875 66.089844 21.347656 66.390625 20.726562 66.679688 C 20.519531 66.777344 20.605469 67.011719 20.851562 67.023438 C 27.324219 67.320312 34.769531 64.617188 38.191406 58.785156 " fill-opacity="1" fill-rule="nonzero"/></g></g></g></g></g><g clip-path="url(#8c89c843da)"><g clip-path="url(#28a7e9023c)"><g clip-path="url(#41ca151ce2)"><g clip-path="url(#8c0f5467e2)"><path fill="#fec34c" d="M 27.996094 62.335938 C 26.148438 62.617188 24.144531 62.769531 22.050781 62.769531 C 15.351562 62.769531 9.558594 59.277344 6.808594 57.296875 C 5.792969 56.5625 5.792969 55.363281 6.808594 54.632812 C 9.558594 52.648438 15.351562 49.15625 22.050781 49.15625 C 23.1875 49.15625 24.296875 49.203125 25.371094 49.289062 C 26.175781 49.351562 26.960938 49.441406 27.71875 49.550781 C 27.996094 49.589844 28.199219 49.363281 28.035156 49.195312 C 27.570312 48.710938 27.066406 48.238281 26.53125 47.777344 C 26.453125 47.710938 26.535156 47.609375 26.65625 47.628906 C 28.640625 47.988281 30.652344 48.734375 32.425781 49.578125 C 32.492188 49.609375 32.550781 49.636719 32.613281 49.667969 C 35.488281 51.058594 37.3125 53.375 37.390625 55.898438 C 37.394531 55.96875 37.394531 56.042969 37.394531 56.117188 C 37.394531 56.191406 37.394531 56.269531 37.390625 56.347656 C 37.304688 58.945312 35.332031 61.304688 32.289062 62.644531 C 32.210938 62.675781 32.136719 62.710938 32.058594 62.742188 C 30.464844 63.425781 28.644531 63.964844 26.648438 64.308594 C 26.53125 64.328125 26.449219 64.226562 26.523438 64.160156 C 27.253906 63.527344 28.21875 62.597656 28.328125 62.472656 C 28.351562 62.445312 28.367188 62.289062 28.167969 62.3125 C 28.109375 62.320312 28.054688 62.328125 27.996094 62.335938 " fill-opacity="1" fill-rule="nonzero"/></g></g></g></g><g clip-path="url(#0e74822db7)"><g clip-path="url(#94fcf8966f)"><g clip-path="url(#17f7aa43c0)"><g clip-path="url(#6b8509671c)"><path fill="#fbefa9" d="M 27.414062 60.035156 C 22.835938 60.035156 18.875 57.949219 17 56.765625 C 16.332031 56.347656 16.332031 55.589844 17 55.171875 C 18.875 53.988281 22.835938 51.902344 27.414062 51.902344 C 33.804688 51.902344 38.988281 53.722656 38.988281 55.96875 C 38.988281 58.214844 33.804688 60.035156 27.414062 60.035156 " fill-opacity="1" fill-rule="nonzero"/></g></g></g></g><g clip-path="url(#a3e4409fe6)"><g clip-path="url(#23ad1ba30f)"><g clip-path="url(#fbf5abd2ac)"><g clip-path="url(#e15375e58b)"><g clip-path="url(#b2531699ad)"><path fill="#f2f2f2" d="M 73.734375 76.828125 C 59.9375 76.828125 47.859375 72.777344 41.21875 66.722656 C 39.191406 64.875 37.671875 62.84375 36.765625 60.683594 L 36.765625 51.242188 C 37.675781 49.070312 39.203125 47.03125 41.242188 45.179688 C 47.886719 39.136719 59.953125 35.09375 73.734375 35.09375 C 90.085938 35.09375 104.023438 47.800781 109.355469 53.382812 C 109.746094 53.789062 110.023438 54.261719 110.195312 54.761719 C 110.230469 54.875 110.265625 54.988281 110.292969 55.101562 C 110.296875 55.128906 110.304688 55.15625 110.308594 55.1875 C 110.410156 55.667969 110.417969 56.167969 110.328125 56.65625 C 110.320312 56.683594 110.316406 56.710938 110.308594 56.738281 C 110.171875 57.394531 109.851562 58.023438 109.359375 58.539062 C 106.726562 61.292969 102.011719 65.773438 95.945312 69.613281 C 89.703125 73.5625 82.027344 76.828125 73.734375 76.828125 " fill-opacity="1" fill-rule="nonzero"/></g></g></g></g></g><g clip-path="url(#caedbeedc5)"><g clip-path="url(#a11efcee47)"><g clip-path="url(#a3b439f6dc)"><g clip-path="url(#e03fd64a17)"><g clip-path="url(#62ccc6679b)"><path fill="#f15a24" d="M 100.113281 55.964844 C 100.113281 50.746094 98.539062 45.972656 95.941406 42.316406 C 102.007812 46.152344 106.726562 50.636719 109.355469 53.386719 C 110.734375 54.832031 110.734375 57.101562 109.359375 58.542969 C 106.726562 61.292969 102.007812 65.777344 95.941406 69.617188 C 98.539062 65.957031 100.113281 61.1875 100.113281 55.964844 " fill-opacity="1" fill-rule="nonzero"/></g></g></g></g></g><g clip-path="url(#0429b90c2b)"><g clip-path="url(#a33d13fb6f)"><g clip-path="url(#3f3cbee109)"><g clip-path="url(#eef594d90c)"><path fill="#4d4d4d" d="M 41.21875 66.722656 C 39.191406 64.875 37.671875 62.84375 36.765625 60.683594 L 36.765625 51.242188 C 37.675781 49.070312 39.203125 47.03125 41.242188 45.179688 C 42.378906 48.46875 43.007812 52.101562 43.007812 55.917969 C 43.007812 59.757812 42.371094 63.414062 41.21875 66.722656 " fill-opacity="1" fill-rule="nonzero"/></g></g></g></g><g clip-path="url(#86a9fefdaa)"><g clip-path="url(#1588184767)"><g clip-path="url(#336db17f42)"><g clip-path="url(#fb982922a7)"><g clip-path="url(#3754b2856d)"><path fill="#ececec" d="M 40.460938 66 L 40.460938 66 M 40.460938 66 C 40.703125 66.242188 40.957031 66.484375 41.21875 66.722656 C 41.828125 67.277344 42.480469 67.816406 43.179688 68.335938 C 42.480469 67.816406 41.828125 67.277344 41.21875 66.722656 C 40.957031 66.484375 40.707031 66.242188 40.460938 66 M 61.96875 75.808594 C 65.671875 76.472656 69.628906 76.828125 73.734375 76.828125 C 78.5625 76.828125 83.179688 75.722656 87.425781 74.019531 C 83.179688 75.722656 78.5625 76.828125 73.734375 76.828125 C 69.628906 76.828125 65.671875 76.472656 61.96875 75.808594 M 87.445312 74.011719 L 87.445312 74.011719 M 95.941406 69.617188 L 95.945312 69.613281 C 95.941406 69.613281 95.941406 69.613281 95.941406 69.617188 C 101.214844 66.28125 105.46875 62.457031 108.21875 59.707031 C 105.46875 62.457031 101.214844 66.28125 95.941406 69.617188 M 109.359375 58.542969 C 109.382812 58.519531 109.40625 58.492188 109.429688 58.46875 C 109.40625 58.492188 109.382812 58.519531 109.359375 58.542969 M 109.429688 58.464844 L 109.429688 58.464844 M 109.433594 58.460938 L 109.433594 58.460938 M 110.292969 55.101562 C 110.289062 55.089844 110.285156 55.078125 110.28125 55.070312 C 110.285156 55.078125 110.289062 55.089844 110.292969 55.101562 M 110.28125 55.066406 L 110.28125 55.066406 " fill-opacity="1" fill-rule="nonzero"/></g></g></g></g></g><g clip-path="url(#f3be615223)"><g clip-path="url(#83e75921e0)"><g clip-path="url(#79fd80f705)"><g clip-path="url(#3b458ea704)"><path fill="#e0e0e0" d="M 41.21875 66.722656 C 42.210938 63.875 42.820312 60.769531 42.96875 57.507812 C 42.988281 57.511719 43.003906 57.511719 43.019531 57.515625 L 43.066406 59.492188 C 43.777344 61.0625 44.84375 62.554688 46.222656 63.929688 C 46.558594 64.265625 46.914062 64.597656 47.285156 64.917969 C 53.507812 70.3125 64.664062 73.746094 77.304688 73.429688 C 84.902344 73.242188 91.859375 70.074219 97.488281 66.316406 L 97.484375 66.320312 C 97.667969 66.199219 97.847656 66.078125 98.027344 65.953125 C 97.4375 67.265625 96.738281 68.492188 95.945312 69.613281 C 93.339844 71.257812 90.488281 72.785156 87.445312 74.011719 C 87.4375 74.011719 87.433594 74.015625 87.425781 74.019531 C 83.179688 75.722656 78.5625 76.828125 73.734375 76.828125 C 69.628906 76.828125 65.671875 76.472656 61.96875 75.808594 C 61.148438 75.660156 60.335938 75.496094 59.539062 75.320312 C 52.972656 73.863281 47.320312 71.425781 43.179688 68.335938 C 42.480469 67.816406 41.828125 67.277344 41.21875 66.722656 M 110.3125 55.207031 C 110.285156 55.058594 110.246094 54.917969 110.195312 54.773438 C 110.195312 54.773438 110.195312 54.773438 110.199219 54.773438 C 110.230469 54.871094 110.257812 54.96875 110.28125 55.066406 C 110.28125 55.066406 110.28125 55.066406 110.28125 55.070312 C 110.285156 55.078125 110.289062 55.089844 110.292969 55.101562 C 110.296875 55.128906 110.304688 55.15625 110.308594 55.1875 C 110.3125 55.191406 110.3125 55.199219 110.3125 55.207031 " fill-opacity="1" fill-rule="nonzero"/></g></g></g></g><g clip-path="url(#11f48b96a3)"><g clip-path="url(#e9070b0a95)"><g clip-path="url(#378ffc3b7b)"><g clip-path="url(#844bfc8085)"><g clip-path="url(#0c5d09f97c)"><path fill="#df5321" d="M 95.941406 69.617188 C 95.941406 69.613281 95.941406 69.613281 95.945312 69.613281 C 96.738281 68.492188 97.4375 67.265625 98.027344 65.953125 C 103.234375 62.390625 107.257812 58.371094 109.523438 55.875 C 109.828125 55.546875 110.050781 55.171875 110.195312 54.773438 C 110.246094 54.917969 110.285156 55.058594 110.3125 55.207031 C 110.316406 55.214844 110.316406 55.226562 110.320312 55.238281 C 110.324219 55.261719 110.328125 55.289062 110.335938 55.316406 C 110.339844 55.347656 110.34375 55.375 110.347656 55.40625 C 110.355469 55.4375 110.359375 55.472656 110.363281 55.503906 C 110.367188 55.53125 110.367188 55.554688 110.371094 55.578125 C 110.375 55.617188 110.378906 55.65625 110.378906 55.695312 C 110.382812 55.714844 110.382812 55.734375 110.382812 55.753906 C 110.386719 55.796875 110.390625 55.84375 110.390625 55.886719 L 110.390625 55.933594 C 110.390625 55.980469 110.390625 56.03125 110.390625 56.082031 L 110.386719 56.109375 C 110.386719 56.167969 110.382812 56.226562 110.378906 56.285156 L 110.375 56.289062 C 110.363281 56.429688 110.34375 56.566406 110.316406 56.703125 L 110.308594 56.738281 L 110.308594 56.753906 C 110.273438 56.914062 110.226562 57.070312 110.171875 57.222656 L 110.171875 57.226562 C 110.011719 57.671875 109.765625 58.089844 109.433594 58.460938 C 109.433594 58.460938 109.433594 58.464844 109.429688 58.464844 C 109.429688 58.464844 109.429688 58.46875 109.429688 58.46875 C 109.40625 58.492188 109.382812 58.519531 109.359375 58.542969 C 109.011719 58.902344 108.632812 59.292969 108.21875 59.707031 C 105.46875 62.457031 101.214844 66.28125 95.941406 69.617188 " fill-opacity="1" fill-rule="nonzero"/></g></g></g></g></g><g clip-path="url(#2963345d89)"><g clip-path="url(#93b127f269)"><g clip-path="url(#79a3e6d950)"><g clip-path="url(#5d6b1454ae)"><path fill="#474747" d="M 40.460938 66 C 38.828125 64.367188 37.582031 62.601562 36.789062 60.738281 C 36.789062 60.738281 36.785156 60.734375 36.785156 60.730469 C 36.777344 60.714844 36.769531 60.699219 36.765625 60.683594 L 36.765625 56.59375 C 38.386719 56.875 40.523438 57.210938 42.96875 57.507812 C 42.820312 60.769531 42.210938 63.875 41.21875 66.722656 C 40.957031 66.484375 40.703125 66.242188 40.460938 66 " fill-opacity="1" fill-rule="nonzero"/></g></g></g></g><g clip-path="url(#9da18ebd7e)"><g clip-path="url(#94399e7ec0)"><g clip-path="url(#72b589080f)"><g clip-path="url(#6df6d2c1eb)"><path fill="#e0e0e0" d="M 42.917969 53.410156 C 42.703125 50.507812 42.125 47.738281 41.242188 45.179688 C 47.886719 39.136719 59.953125 35.09375 73.734375 35.09375 C 74.675781 35.09375 75.613281 35.140625 76.539062 35.21875 C 76.476562 35.222656 76.417969 35.21875 76.355469 35.222656 C 63.726562 35.535156 52.765625 39.511719 46.816406 45.195312 C 44.992188 46.9375 43.640625 48.839844 42.851562 50.847656 L 42.917969 53.410156 " fill-opacity="1" fill-rule="nonzero"/></g></g></g></g><g clip-path="url(#1d4b1a8676)"><g clip-path="url(#9575f6fc5a)"><g clip-path="url(#1db4097b0f)"><g clip-path="url(#d2eb679844)"><path fill="#474747" d="M 36.765625 55.328125 L 36.765625 51.242188 C 37.554688 49.359375 38.808594 47.574219 40.457031 45.925781 C 40.710938 45.675781 40.972656 45.425781 41.242188 45.179688 C 42.125 47.738281 42.703125 50.507812 42.917969 53.410156 L 42.941406 54.417969 C 40.492188 54.714844 38.375 55.046875 36.765625 55.328125 " fill-opacity="1" fill-rule="nonzero"/></g></g></g></g><g clip-path="url(#d1df666f45)"><g clip-path="url(#94c00d441d)"><g clip-path="url(#e6fc87192d)"><g clip-path="url(#9af70ea993)"><path fill="#f15a24" d="M 47.65625 57.984375 C 39.765625 57.351562 33.464844 55.960938 33.464844 55.960938 C 33.464844 55.960938 39.640625 54.589844 47.65625 53.9375 C 55.472656 53.300781 61.847656 54.84375 61.847656 55.960938 C 61.847656 57.078125 55.472656 58.609375 47.65625 57.984375 " fill-opacity="1" fill-rule="nonzero"/></g></g></g></g><g clip-path="url(#a051df6cad)"><g clip-path="url(#78d591beb3)"><g clip-path="url(#d9edcb6f0d)"><g clip-path="url(#d0c9f987e8)"><path fill="#f5835b" d="M 36.765625 55.960938 C 36.765625 55.960938 41.898438 55.566406 48.554688 55.378906 C 54.847656 55.199219 60.011719 55.609375 60.328125 55.929688 C 60.339844 55.9375 60.34375 55.949219 60.34375 55.960938 C 60.34375 56.28125 55.050781 56.722656 48.554688 56.542969 C 42 56.359375 36.765625 55.960938 36.765625 55.960938 " fill-opacity="1" fill-rule="nonzero"/></g></g></g></g><g clip-path="url(#e66afb828f)"><g clip-path="url(#a7d8f31487)"><g clip-path="url(#0d31a7cdf5)"><g clip-path="url(#cc2a130691)"><path fill="#f15a24" d="M 74.6875 49.464844 C 78.433594 46.441406 83.921875 47.023438 86.949219 50.769531 C 89.976562 54.515625 89.394531 60.007812 85.648438 63.035156 C 81.898438 66.058594 76.410156 65.476562 73.382812 61.730469 C 70.355469 57.984375 70.941406 52.492188 74.6875 49.464844 " fill-opacity="1" fill-rule="nonzero"/></g></g></g></g><g clip-path="url(#06c586e59f)"><g clip-path="url(#a0c9e28e8e)"><g clip-path="url(#6c17bb5102)"><g clip-path="url(#1d49421cec)"><path fill="#0071bc" d="M 76.261719 51.417969 C 78.933594 49.261719 82.84375 49.679688 85 52.347656 C 87.15625 55.015625 86.738281 58.925781 84.070312 61.082031 C 81.402344 63.238281 77.492188 62.820312 75.335938 60.152344 C 73.179688 57.484375 73.59375 53.574219 76.261719 51.417969 " fill-opacity="1" fill-rule="nonzero"/></g></g></g></g><g clip-path="url(#f22551c43a)"><g clip-path="url(#2ad44fed26)"><g clip-path="url(#3069fdcb78)"><g clip-path="url(#4f0b6ac8bd)"><path fill="#e05421" d="M 75.78125 60.648438 C 77.996094 62.867188 81.574219 63.097656 84.070312 61.082031 C 84.070312 61.082031 84.074219 61.078125 84.078125 61.078125 C 84.074219 61.078125 84.070312 61.082031 84.070312 61.082031 C 81.574219 63.097656 77.996094 62.867188 75.78125 60.648438 M 84.078125 61.074219 C 84.082031 61.074219 84.082031 61.070312 84.082031 61.070312 C 84.082031 61.074219 84.082031 61.074219 84.078125 61.074219 M 84.085938 61.070312 C 84.089844 61.066406 84.089844 61.066406 84.09375 61.0625 C 84.089844 61.066406 84.089844 61.066406 84.085938 61.070312 M 84.097656 61.0625 C 84.097656 61.058594 84.097656 61.058594 84.097656 61.058594 C 84.097656 61.058594 84.097656 61.058594 84.097656 61.0625 M 84.101562 61.054688 C 84.105469 61.054688 84.105469 61.054688 84.105469 61.054688 C 84.105469 61.054688 84.105469 61.054688 84.101562 61.054688 M 76.261719 51.417969 C 76.429688 51.28125 76.601562 51.160156 76.777344 51.042969 C 76.601562 51.160156 76.429688 51.28125 76.261719 51.417969 " fill-opacity="1" fill-rule="nonzero"/></g></g></g></g><g clip-path="url(#08bbf71ab1)"><g clip-path="url(#64f856761c)"><g clip-path="url(#ef2a86955b)"><g clip-path="url(#ee1ce1af8e)"><path fill="#0069af" d="M 75.777344 60.648438 C 75.625 60.492188 75.476562 60.328125 75.335938 60.152344 C 73.320312 57.660156 73.550781 54.082031 75.769531 51.863281 C 75.921875 51.707031 76.089844 51.558594 76.261719 51.417969 C 76.429688 51.28125 76.601562 51.160156 76.777344 51.042969 C 75.148438 53.226562 75.066406 56.214844 76.761719 58.3125 C 76.886719 58.46875 77.019531 58.613281 77.15625 58.753906 C 79.257812 60.855469 82.765625 60.984375 85.269531 58.960938 C 85.558594 58.726562 85.824219 58.472656 86.0625 58.203125 C 85.703125 59.285156 85.046875 60.28125 84.105469 61.054688 C 84.105469 61.054688 84.105469 61.054688 84.101562 61.054688 C 84.101562 61.054688 84.101562 61.058594 84.097656 61.058594 C 84.097656 61.058594 84.097656 61.058594 84.097656 61.0625 C 84.09375 61.0625 84.09375 61.0625 84.09375 61.0625 C 84.089844 61.066406 84.089844 61.066406 84.085938 61.070312 C 84.085938 61.070312 84.085938 61.070312 84.082031 61.070312 C 84.082031 61.070312 84.082031 61.074219 84.078125 61.074219 C 84.078125 61.074219 84.078125 61.074219 84.078125 61.078125 C 84.074219 61.078125 84.070312 61.082031 84.070312 61.082031 C 81.574219 63.097656 77.996094 62.867188 75.78125 60.648438 C 75.78125 60.648438 75.78125 60.648438 75.777344 60.648438 " fill-opacity="1" fill-rule="nonzero"/></g></g></g></g></svg>